<svg width="41" height="41" viewBox="0 0 41 41" fill="none" xmlns="http://www.w3.org/2000/svg">
<path fill-rule="evenodd" clip-rule="evenodd" d="M20.5 41C31.8218 41 41 31.8218 41 20.5C41 9.17816 31.8218 0 20.5 0C9.17816 0 0 9.17816 0 20.5C0 31.8218 9.17816 41 20.5 41ZM23.6902 9.65297C23.8626 9.51415 24.0939 9.4364 24.3351 9.43619L24.3353 9.43564C24.5865 9.43525 24.8275 9.51889 25.0036 9.6676C25.1797 9.81623 25.2756 10.0172 25.2695 10.2246C25.2635 10.432 25.156 10.6282 24.9717 10.7685L22.7141 12.5375C22.3438 12.8277 21.9089 13.0579 21.4316 13.2129L17.2491 14.5823C16.5726 14.8038 16.0506 15.2447 15.7837 15.8531L14.7512 18.7579C14.7398 18.7899 14.7261 18.8213 14.7098 18.8519L13.4385 21.2264C13.3221 21.4982 13.4369 21.72 13.6735 21.8873C13.9112 22.0556 14.1784 22.1196 14.5106 21.9649C14.7732 21.8426 15.0471 21.6794 15.3273 21.4602C17.3542 19.8712 19.6914 17.6709 19.6914 17.6709C19.872 17.5005 20.1353 17.4053 20.4101 17.411C20.4101 17.411 25.2966 17.5128 26.5618 17.5544C27.9903 17.6013 29.1701 18.1768 29.5592 19.0951C29.874 19.8382 29.529 20.624 28.9056 21.3192C28.9591 21.4194 29.0004 21.5183 29.041 21.6171C29.5984 21.1831 30.2063 20.7093 30.6233 20.361C31.1532 19.9188 31.4249 19.5134 31.5051 18.7739L31.5051 18.7728C31.5476 18.3838 31.658 17.9101 31.8451 17.4338C32.0322 16.9575 32.2594 16.4815 32.7561 16.0921L33.1473 15.7855C33.3197 15.6466 33.551 15.5689 33.7922 15.5687C34.0431 15.5685 34.2837 15.6522 34.4594 15.8007C34.6352 15.9493 34.731 16.1498 34.7252 16.3569C34.7194 16.5641 34.6125 16.7602 34.4286 16.9005L34.0375 17.2071C33.9714 17.2589 33.7499 17.5613 33.6117 17.9126C33.4739 18.2636 33.3828 18.666 33.3553 18.9168L33.3553 18.9179C33.2408 19.97 32.7048 20.8095 31.9454 21.443C30.9034 22.3133 29.0762 23.6989 28.903 23.8302C28.8956 23.8411 28.8888 23.8525 28.882 23.8639C28.8725 23.8798 28.863 23.8956 28.8523 23.9099C28.7146 24.0939 28.5632 24.2112 28.4112 24.329C28.3772 24.3554 28.3432 24.3817 28.3093 24.4089C28.3275 24.4375 28.3459 24.4659 28.3643 24.4944C28.4776 24.6691 28.592 24.8455 28.6633 25.0876C28.8638 25.7682 28.6644 26.7079 27.812 27.4989C28.1876 28.35 28.044 29.2735 27.455 29.9667C26.7289 30.8211 25.4309 31.3605 23.922 31.3322C23.7394 31.3288 23.497 31.3245 23.2095 31.3194C21.5086 31.2892 18.2301 31.231 16.4426 31.1738C16.1733 31.1653 15.7864 31.1788 15.4624 31.2289C15.138 31.2791 14.892 31.3901 14.8792 31.4002L14.2888 31.8631C14.1117 32.0077 13.8713 32.0871 13.6217 32.0834C13.3722 32.0797 13.1344 31.9931 12.9622 31.8433C12.7901 31.6934 12.6978 31.4929 12.7063 31.2868C12.7148 31.0808 12.8233 30.8866 13.0074 30.748L13.5979 30.2851C14.0674 29.9171 14.606 29.7993 15.113 29.7209C15.6199 29.6426 16.1099 29.6279 16.5064 29.6405L16.5076 29.6406C18.2558 29.6965 21.5328 29.7549 23.2397 29.7853C23.5281 29.7905 23.7717 29.7948 23.9555 29.7982C24.9106 29.8161 25.5913 29.482 25.9322 29.0809C26.273 28.6798 26.335 28.2538 25.9391 27.7581C25.8091 27.5955 25.7585 27.3985 25.7975 27.2068C25.8365 27.0152 25.9623 26.8433 26.1492 26.7258C27.0305 26.1725 26.9698 25.8248 26.8577 25.4444C26.7456 25.0638 26.4384 24.759 26.4384 24.759C26.2481 24.5834 26.1654 24.3457 26.2141 24.1141C26.2628 23.8825 26.4376 23.6826 26.6882 23.5718C26.6882 23.5718 27.0444 23.4008 27.2704 23.0988C27.2712 23.0977 27.2717 23.0965 27.2723 23.0953C27.2729 23.0941 27.2734 23.0929 27.2742 23.0918L27.2756 23.0899C27.3016 23.0336 27.3356 22.9801 27.3769 22.9304C27.5321 22.663 27.5755 22.3282 27.0772 21.6664C26.9643 21.5165 26.917 21.3393 26.9434 21.1644C26.9699 20.9897 27.0684 20.8279 27.2224 20.7065C27.8441 20.2161 27.8979 19.8136 27.8062 19.597C27.7144 19.3803 27.4227 19.1183 26.4952 19.0878C25.4119 19.0522 21.5776 18.9714 20.8355 18.9557L20.7799 18.9546C20.771 18.963 20.7605 18.9729 20.7485 18.9841C20.3716 19.3387 18.5302 21.0708 16.6095 22.5765L16.6083 22.5765C16.2221 22.8787 15.8236 23.1188 15.4272 23.3033C14.4128 23.7757 13.2234 23.5857 12.4686 23.0515C11.7137 22.5174 11.3014 21.5892 11.6913 20.6962C11.6988 20.6795 11.7069 20.6631 11.7158 20.6469L11.8923 20.3162L6.80627 24.3036C6.62801 24.4434 6.38952 24.5188 6.14321 24.5131C5.89691 24.5075 5.663 24.4213 5.49291 24.2734C5.32281 24.1256 5.23051 23.9281 5.23631 23.7247C5.24213 23.5212 5.34545 23.3283 5.52378 23.1885L13.4045 17.0112C13.4177 17.0005 13.4313 16.9902 13.4453 16.9802L14.0157 15.3738C14.0212 15.3591 14.0273 15.3446 14.0339 15.3302C14.4719 14.3271 15.3892 13.5387 16.5585 13.1559L20.7435 11.7866L20.7459 11.7857C21.0001 11.703 21.2325 11.5798 21.4326 11.4229L23.6902 9.65297Z" fill="#D9D9D9"/>
</svg>
