<?xml version="1.0" encoding="UTF-8"?>
<svg width="512pt" height="512pt" version="1.1" viewBox="0 0 512 512" xmlns="http://www.w3.org/2000/svg">
 <path d="m496 374.94c0.003906-2.1445-1.5664-3.9688-3.6914-4.2812l-27.93-4.2891c-1.0977-3.3203-2.4336-6.5547-4-9.6797l16.75-22.828v-0.003906c1.2891-1.7266 1.1055-4.1367-0.42969-5.6484l-20.719-20.648v-0.003906c-1.5195-1.5156-3.918-1.6992-5.6523-0.42969l-22.801 16.738 0.003906 0.003906c-3.1211-1.5625-6.3516-2.8984-9.6602-4l-4.2812-28c-0.32031-2.1211-2.1445-3.6914-4.2891-3.6914l-29.301-0.007813c-2.1523-0.011719-3.9805 1.5625-4.3008 3.6875l-4.3008 28c-3.3086 1.1055-6.5352 2.4414-9.6602 4l-22.801-16.738h0.003906c-1.7266-1.2812-4.1289-1.0977-5.6406 0.42969l-20.73 20.648c-1.5312 1.5156-1.7148 3.9219-0.42969 5.6523l16.75 22.828c-1.582 3.1641-2.9375 6.4414-4.0508 9.8008l-27.93 4.1719v-0.003906c-2.1367 0.31641-3.7188 2.1523-3.7109 4.3125l0.050781 29.23c0.003906 2.1523 1.582 3.9766 3.7109 4.2891l27.84 4.1719v-0.003906c1.1289 3.4297 2.5078 6.7734 4.1211 10l-16.812 22.652c-1.2891 1.7305-1.1055 4.1445 0.42969 5.6602l20.711 20.629c1.5195 1.5234 3.9219 1.7031 5.6484 0.42188l22.621-16.73c3.2266 1.625 6.5703 3.0078 10 4.1406l4.1719 27.82v-0.003907c0.28906 2.1602 2.1328 3.7656 4.3086 3.7617l29.23 0.050781c2.1562 0.011719 3.9961-1.5664 4.3086-3.6992l4.1719-27.879v-0.003906c3.4297-1.1328 6.7695-2.5156 10-4.1406l22.559 16.672c1.7305 1.2852 4.1406 1.1055 5.6602-0.42188l20.699-20.578c1.5391-1.5156 1.7227-3.9297 0.42969-5.6602l-16.781-22.68h0.003906c1.5898-3.1758 2.9531-6.4609 4.0781-9.832l27.949-4.2891c2.1289-0.31641 3.6992-2.1484 3.6914-4.3008zm-101.41 57.289c-11.312 0.003906-22.164-4.4883-30.164-12.488-8-7.9961-12.496-18.848-12.496-30.16s4.4922-22.16 12.492-30.16 18.848-12.492 30.16-12.492 22.164 4.4961 30.16 12.496c8 8 12.492 18.852 12.488 30.164 0 11.309-4.4922 22.156-12.488 30.152-7.9961 7.9961-18.844 12.488-30.152 12.488zm-94.59-134.8h-56.109c-4.418 0-8-3.582-8-8 0-4.418 3.582-8 8-8h56.109c4.418 0 8 3.582 8 8 0 4.418-3.582 8-8 8zm-96.648 0.33984c0 1.6562-1.3438 3-3 3h-41.691c-1.6562 0-3-1.3438-3-3v-41.711c0-1.6562 1.3438-3 3-3h41.711c1.6562 0 3 1.3438 3 3zm0 41.691v41.711c0 1.6562-1.3438 3-3 3h-41.691c-1.6562 0-3-1.3438-3-3v-41.711c0-1.6562 1.3438-3 3-3h41.711c1.6562 0 3 1.3438 3 3zm136.65-67h-96.109c-4.418 0-8-3.582-8-8 0-4.418 3.582-8 8-8h96.109c4.418 0 8 3.582 8 8 0 4.418-3.582 8-8 8zm8-66.461c0 2.1211-0.84375 4.1562-2.3438 5.6562s-3.5352 2.3438-5.6562 2.3438h-96.109c-4.418 0-8-3.582-8-8s3.582-8 8-8h96.109c2.1211 0 4.1562 0.84375 5.6562 2.3438s2.3438 3.5352 2.3438 5.6562zm-53.441 218.31 11.859 1.7812-7.1719 9.6914h0.003906c-2.1094 2.8594-3.4336 6.2188-3.8398 9.75h-184.24c-3.3633-0.011719-6.0859-2.7383-6.0938-6.1016v-250.71c7.6172-1.0625 15.07-3.0781 22.184-6v232c0.007812 2.8672 2.332 5.1914 5.1992 5.2031h152.21c2.8359 2.3281 6.2539 3.8477 9.8867 4.3867zm-21-68.5h-29.668c-4.418 0-8-3.582-8-8 0-4.418 3.582-8 8-8h29.68c4.418 0 8 3.582 8 8 0 4.418-3.582 8-8 8zm-14.73 9c4.4219 0 8 3.582 8 8 0 4.418-3.5781 8-8 8h-14.938c-4.418 0-8-3.582-8-8 0-4.418 3.582-8 8-8zm120.7-242h-49.227v-25.59h70.531-0.003906c3.3594 0.011719 6.082 2.7305 6.0938 6.0898v168.91h-22.18l-0.003907-144.22c-0.015625-2.8633-2.3359-5.1758-5.1992-5.1797zm-178.83 13.863h110.6c1.6562 0 3-1.3438 3-3v-44.172c0-1.6562-1.3438-3-3-3h-22.812c-1.5703 0.003906-2.8789-1.2031-3-2.7695-0.78125-9.9922-6.5664-18.91-15.375-23.695-8.8086-4.7852-19.438-4.7852-28.246 0-8.8086 4.7852-14.598 13.703-15.379 23.695-0.11719 1.5664-1.4258 2.7734-3 2.7695h-22.789c-1.6562 0-3 1.3438-3 3v44.172c0 1.6562 1.3438 3 3 3zm55.301-60.672c4.9453 0 9.3984 2.9766 11.289 7.5469 1.8906 4.5664 0.84375 9.8242-2.6523 13.316-3.4961 3.4961-8.7539 4.5391-13.32 2.6445-4.5664-1.8945-7.5391-6.3555-7.5352-11.297 0.003906-6.7461 5.4727-12.211 12.219-12.211zm92 105c0 2.1211-0.84375 4.1562-2.3438 5.6562s-3.5352 2.3438-5.6562 2.3438h-96.109c-4.418 0-8-3.582-8-8s3.582-8 8-8h96.109c2.1211 0 4.1562 0.84375 5.6562 2.3438s2.3438 3.5352 2.3438 5.6562zm-144.63 33.371c0 1.6562-1.3438 3-3 3h-41.711c-1.6562 0-3-1.3438-3-3v-41.711c0-1.6562 1.3438-3 3-3h41.711c1.6562 0 3 1.3438 3 3zm-34.77-117.07c0-20.238-8.0391-39.645-22.348-53.953-14.312-14.309-33.719-22.348-53.953-22.348-20.238 0-39.645 8.0391-53.953 22.348s-22.348 33.715-22.348 53.953c0 20.234 8.0391 39.641 22.348 53.953 14.309 14.309 33.715 22.348 53.953 22.348 20.234 0 39.641-8.0391 53.953-22.348 14.309-14.312 22.348-33.719 22.348-53.953zm-46.238 26.551-33.363-19.273c-2.8594-1.293-4.6953-4.1406-4.6992-7.2773l-0.17188-46.828c0-10.57 16.172-10.609 16.172 0v42.246l30 17.32c9.0703 5.2109 1.1289 19.031-7.9414 13.812z" fill="#fff"/>
</svg>
