<?xml version="1.0" encoding="UTF-8"?>
<svg width="512pt" height="512pt" version="1.1" viewBox="0 0 512 512" xmlns="http://www.w3.org/2000/svg">
 <path d="m268.8 40.449v-16.898c0-8.7031-9.7266-13.824-16.383-8.7031l-47.617 31.23c-6.1445 4.0977-6.1445 13.312 0 17.922l47.105 31.742c7.168 4.6094 16.383-0.51172 16.383-8.7031v-15.871c96.258 6.6562 173.05 87.039 173.05 185.34 0 8.1914 6.6562 14.848 14.848 14.848s14.848-6.6562 14.848-14.848c0.51172-115.2-89.598-209.41-202.24-216.06z" fill="#fff"/>
 <path d="m307.2 448-47.105-31.742c-7.168-4.6094-16.383 0.51172-16.383 8.7031v15.871c-96.258-6.6562-173.05-87.039-173.05-185.34 0-8.1914-6.6562-14.848-14.848-14.848s-15.359 7.168-15.359 15.359c0 114.69 89.602 208.38 202.75 215.04v16.895c0 8.7031 9.7266 13.824 16.383 8.7031l47.613-30.715c6.1445-4.6094 6.1445-13.824 0-17.922z" fill="#fff"/>
 <path d="m256 118.27c-76.289 0-137.73 61.441-137.73 137.73 0 76.289 61.441 137.73 137.73 137.73 76.289 0 137.73-61.441 137.73-137.73 0-76.289-61.438-137.73-137.73-137.73zm12.289 202.24v14.848c0 2.5586-2.0469 4.6094-4.6094 4.6094h-15.359c-2.5586 0-4.6094-2.0469-4.6094-4.6094v-14.336c-15.871-1.5352-28.672-14.336-30.207-30.207 0-1.0234 0.51172-2.5586 1.0234-3.5859 1.0234-1.0234 2.0469-1.5352 3.5859-1.5352h15.871c2.0469 0 4.0977 1.5352 4.6094 3.5859 1.0234 4.0977 4.6094 7.168 9.2148 7.168h13.312c7.6797 0 14.336-5.6328 14.848-12.289 0.51172-4.0977-1.0234-7.6797-3.5859-10.754-2.5586-3.0703-6.6562-4.6094-10.238-4.6094h-10.238c-20.48 0-38.398-15.359-40.449-34.816-2.0469-20.48 12.289-38.91 32.258-41.984v-14.336c0-2.5586 2.0469-4.6094 4.6094-4.6094h15.359c2.5586 0 4.6094 2.0469 4.6094 4.6094v14.336c15.871 1.5352 28.672 14.336 30.207 30.207 0 1.0234-0.51172 2.5586-1.0234 3.5859-1.0234 1.0234-2.0469 1.5352-3.5859 1.5352h-15.871c-2.0469 0-4.0977-1.5352-4.6094-3.5859-1.0234-4.0977-4.6094-7.168-9.2148-7.168l-13.316 0.003907c-7.6797 0-14.336 5.6328-14.848 12.289-0.51172 4.0977 1.0234 7.6797 3.5859 10.754 2.5586 3.0703 6.6562 4.6094 10.238 4.6094h11.777c10.754 0 21.504 4.6094 28.672 12.801 7.6797 8.1914 10.754 18.945 9.7266 30.207-1.0234 15.871-14.336 29.695-31.742 33.277z" fill="#fff"/>
</svg>
