<?xml version="1.0" encoding="UTF-8"?>
<svg width="512pt" height="512pt" version="1.1" viewBox="0 0 512 512" xmlns="http://www.w3.org/2000/svg">
 <path d="m327.78 112.09c-38.172-0.003907-74.777 15.16-101.77 42.148-26.992 26.988-42.156 63.594-42.156 101.76 0 38.168 15.16 74.773 42.148 101.77 26.992 26.988 63.598 42.152 101.77 42.152s74.773-15.16 101.76-42.152c26.992-26.988 42.152-63.594 42.152-101.76-0.042969-38.152-15.219-74.734-42.195-101.71-26.98-26.98-63.559-42.16-101.71-42.203zm0 271.03v-0.003907c-33.715 0-66.047-13.391-89.887-37.23-23.836-23.836-37.23-56.168-37.23-89.883s13.395-66.047 37.23-89.883c23.84-23.84 56.172-37.23 89.887-37.23 33.711 0 66.043 13.391 89.883 37.23 23.84 23.836 37.23 56.168 37.23 89.883-0.035156 33.703-13.441 66.012-37.273 89.844-23.828 23.828-56.141 37.234-89.84 37.27zm-110.04-15.832c7.7969 7.7148 16.375 14.598 25.598 20.535h-192.76c-5.668 0-10.266-4.5977-10.266-10.27 0-5.668 4.5977-10.266 10.266-10.266zm110.04-225.73c-30.352 0-59.461 12.055-80.926 33.52-21.461 21.461-33.52 50.57-33.52 80.922s12.059 59.461 33.52 80.922c21.465 21.465 50.574 33.52 80.926 33.52 30.352 0 59.461-12.055 80.922-33.52 21.461-21.461 33.52-50.57 33.52-80.922-0.035156-30.34-12.102-59.43-33.559-80.887-21.453-21.453-50.543-33.523-80.883-33.555zm-6.3359 13.258c0-3.5 2.8359-6.3359 6.3359-6.3359 3.4961 0 6.3359 2.8359 6.3359 6.3359v18.617c0 3.5-2.8398 6.3359-6.3359 6.3359-3.5 0-6.3359-2.8359-6.3359-6.3359zm-76.23 107.52h-18.617c-3.5 0-6.3359-2.8359-6.3359-6.3359s2.8359-6.3359 6.3359-6.3359h18.617c3.5 0 6.3359 2.8359 6.3359 6.3359s-2.8359 6.3359-6.3359 6.3359zm88.902 94.848c0 3.5-2.8398 6.3359-6.3359 6.3359-3.5 0-6.3359-2.8359-6.3359-6.3359v-18.617c0-3.5 2.8359-6.3359 6.3359-6.3359 3.4961 0 6.3359 2.8359 6.3359 6.3359zm64.16-164.86-51.074 51.047c3.0547 4.6914 4.3086 10.328 3.5352 15.871-0.77734 5.543-3.5273 10.621-7.7539 14.293-4.2227 3.6758-9.6289 5.6992-15.227 5.6992-5.6016 0-11.008-2.0234-15.23-5.6992-4.2266-3.6719-6.9766-8.75-7.7539-14.293-0.77344-5.543 0.48047-11.18 3.5352-15.871l-36.566-36.566c-2.4297-2.4805-2.4102-6.4609 0.046875-8.9141 2.457-2.457 6.4336-2.4766 8.9141-0.046875l37.172 37.172c6.2578-2.957 13.512-2.957 19.766 0l51.695-51.656c2.4766-2.4766 6.4883-2.4727 8.9648 0 2.4727 2.4766 2.4727 6.4922-0.003906 8.9648zm30.688 70.016h-18.625c-3.5 0-6.3359-2.8359-6.3359-6.3359s2.8359-6.3359 6.3359-6.3359h18.625c3.5 0 6.3359 2.8359 6.3359 6.3359s-2.8359 6.3359-6.3359 6.3359zm-90.652-6.3359c0 4.2617-2.5664 8.1016-6.5 9.7305-3.9375 1.6328-8.4688 0.73047-11.48-2.2812s-3.9141-7.543-2.2852-11.48c1.6328-3.9375 5.4727-6.5039 9.7344-6.5039 5.8125 0.007812 10.527 4.7188 10.531 10.535zm-235.08-116.05c0.007813-5.668 4.5977-10.262 10.266-10.27h121.86c-8.293 6.0859-15.973 12.961-22.934 20.535h-98.922c-5.668-0.003906-10.262-4.5977-10.266-10.266zm-20.969 79.199c0.003907-5.668 4.5977-10.262 10.266-10.266h85.914c-2.125 6.7227-3.7891 13.582-4.9805 20.531h-80.934c-5.668-0.003907-10.262-4.5977-10.266-10.266zm-20.969 79.199h-0.003906c0.007813-5.6641 4.5977-10.258 10.262-10.266h102.93c1.457 6.9688 3.3906 13.828 5.793 20.531h-108.73c-5.6641-0.007813-10.254-4.5977-10.262-10.266z" fill="#fff"/>
</svg>
