<?xml version="1.0" encoding="UTF-8"?>
<svg width="512pt" height="512pt" version="1.1" viewBox="0 0 512 512" xmlns="http://www.w3.org/2000/svg">
 <path d="m256 35.625c-37.188 0-67.328 30.137-67.328 67.328 0 15.852 5.4766 30.414 14.633 41.914 8.9648-20.188 29.184-34.266 52.691-34.266 23.508 0 43.727 14.078 52.691 34.266 9.1562-11.5 14.633-26.062 14.633-41.914 0.007813-37.188-30.133-67.328-67.32-67.328zm-153.05 285.53c16.09 0 29.137 13.047 29.137 29.137 0 16.09-13.047 29.137-29.137 29.137s-29.137-13.047-29.137-29.137c-0.003906-16.09 13.047-29.137 29.137-29.137zm0 62.32c23.508 0 43.727 14.078 52.691 34.266 9.1562-11.5 14.633-26.062 14.633-41.914 0-37.188-30.137-67.328-67.328-67.328-37.184 0-67.324 30.141-67.324 67.328 0 15.852 5.4766 30.414 14.633 41.914 8.9727-20.18 29.188-34.266 52.695-34.266zm153.05-335.2c16.09 0 29.137 13.047 29.137 29.137 0 16.09-13.047 29.137-29.137 29.137s-29.137-13.047-29.137-29.137c0-16.09 13.047-29.137 29.137-29.137zm153.05 272.88c16.09 0 29.137 13.047 29.137 29.137 0 16.09-13.047 29.137-29.137 29.137s-29.137-13.047-29.137-29.137c0-16.09 13.043-29.137 29.137-29.137zm0 62.32c23.508 0 43.727 14.078 52.691 34.266 9.1562-11.5 14.633-26.062 14.633-41.914 0-37.188-30.137-67.328-67.328-67.328-37.188 0-67.328 30.137-67.328 67.328 0 15.852 5.4766 30.414 14.633 41.914 8.9766-20.18 29.195-34.266 52.699-34.266zm-306.09-214.05c16.523 0 29.922 13.398 29.922 29.922 0 16.523-13.398 29.922-29.922 29.922s-29.922-13.398-29.922-29.922c0.003906-16.527 13.395-29.922 29.922-29.922zm306.09 0c16.523 0 29.922 13.398 29.922 29.922 0 16.523-13.398 29.922-29.922 29.922s-29.922-13.398-29.922-29.922c0-16.527 13.398-29.922 29.922-29.922zm-153.05 262.3c16.523 0 29.922 13.398 29.922 29.922 0 16.523-13.398 29.922-29.922 29.922s-29.922-13.398-29.922-29.922c0-16.523 13.398-29.922 29.922-29.922zm64.863-98.059-57.297-33.078v116.57c-2.457-0.41016-4.9844-0.62891-7.5664-0.62891s-5.1094 0.21875-7.5664 0.63281v-116.59l-57.301 33.082c-2.1914-4.5742-4.7305-8.9492-7.5859-13.098l57.309-33.082-103.13-59.379c3.2109-3.8789 5.7812-8.2969 7.5625-13.109l103.15 59.391v-73.988c2.4961 0.19141 5.0234 0.28906 7.5664 0.28906 2.5508 0 5.0703-0.097657 7.5664-0.28906v73.988l103.15-59.391c1.7773 4.8125 4.3516 9.2305 7.5625 13.109l-103.11 59.367 57.297 33.082c-2.8555 4.1562-5.3984 8.543-7.5977 13.121zm-64.863-313.24c45.578 0 82.527 36.949 82.527 82.527s-36.949 82.527-82.527 82.527c-45.578 0.003906-82.527-36.945-82.527-82.527 0-45.578 36.949-82.527 82.527-82.527zm153.05 272.88c-45.578 0-82.527 36.949-82.527 82.527s36.949 82.527 82.527 82.527 82.527-36.949 82.527-82.527-36.949-82.527-82.527-82.527zm-306.09 0c-45.578 0-82.527 36.949-82.527 82.527s36.949 82.527 82.527 82.527 82.527-36.949 82.527-82.527c-0.003907-45.578-36.945-82.527-82.527-82.527z" fill="#fff" fill-rule="evenodd"/>
</svg>
