<?xml version="1.0" standalone="no"?>
<!DOCTYPE svg PUBLIC "-//W3C//DTD SVG 20010904//EN"
 "http://www.w3.org/TR/2001/REC-SVG-20010904/DTD/svg10.dtd">
<svg version="1.0" xmlns="http://www.w3.org/2000/svg"
 width="700.000000pt" height="700.000000pt" viewBox="0 0 700.000000 700.000000"
 preserveAspectRatio="xMidYMid meet">
<metadata>
Created by potrace 1.14, written by Peter Selinger 2001-2017
</metadata>
<g transform="translate(0.000000,700.000000) scale(0.100000,-0.100000)"
fill="#000000" stroke="none">
<path d="M4085 5376 c-16 -8 -122 -87 -235 -176 -113 -88 -225 -172 -250 -184
-25 -13 -220 -81 -435 -151 -461 -150 -516 -176 -630 -290 -95 -94 -122 -142
-190 -332 l-51 -142 -659 -516 c-363 -284 -677 -532 -697 -551 -42 -39 -54
-77 -38 -120 14 -37 37 -62 74 -81 31 -16 107 -21 143 -9 12 4 219 161 460
351 241 189 439 342 440 341 1 -1 -8 -22 -20 -47 -17 -34 -22 -61 -22 -124 0
-100 25 -156 104 -236 68 -68 147 -106 255 -125 183 -32 331 24 571 216 154
124 360 303 530 459 l110 102 350 -7 c548 -9 723 -18 770 -38 115 -49 115
-113 0 -236 -56 -60 -65 -74 -65 -107 0 -25 9 -52 26 -76 37 -55 64 -118 64
-151 0 -45 -44 -110 -97 -144 -82 -53 -92 -62 -109 -94 -22 -42 -11 -88 33
-140 49 -59 73 -114 73 -172 0 -53 -10 -66 -136 -172 -45 -38 -49 -45 -49 -85
0 -33 8 -57 33 -93 74 -113 21 -225 -140 -296 -77 -34 -161 -38 -598 -28 -228
4 -570 9 -760 11 -377 2 -429 -3 -542 -57 -62 -30 -196 -134 -214 -168 -51
-91 51 -202 170 -184 34 5 65 21 119 62 130 98 93 95 1039 75 688 -14 738 -13
871 30 164 54 302 160 359 277 28 57 34 80 36 154 3 62 -1 102 -12 134 l-16
46 39 44 c81 93 130 228 116 323 -4 25 -20 72 -36 104 l-29 57 58 58 c31 32
107 96 167 142 135 104 345 271 404 322 115 100 198 243 221 383 32 192 71
278 159 355 67 58 86 94 77 144 -19 100 -168 138 -269 69 -158 -107 -235 -248
-282 -517 -17 -99 -40 -149 -92 -206 -41 -47 -306 -260 -321 -260 -6 0 -13 8
-17 19 -4 12 10 42 44 90 140 203 87 388 -144 502 -141 69 -171 72 -947 90
-387 9 -451 8 -482 -5 -19 -8 -104 -77 -188 -154 -325 -297 -632 -551 -721
-595 -29 -15 -69 -27 -90 -27 -68 0 -127 46 -127 99 0 13 52 122 115 240 98
186 126 251 203 466 49 138 97 265 106 284 43 83 147 155 286 199 351 111 727
241 780 268 36 19 166 114 290 212 193 152 227 183 237 215 36 108 -106 205
-222 153z"/>
</g>
</svg>
