<?xml version="1.0" encoding="UTF-8"?>
<svg width="512pt" height="512pt" version="1.1" viewBox="0 0 512 512" xmlns="http://www.w3.org/2000/svg">
 <path d="m430.25 100.85 5.3477-11.996 10.113-13.27 10.16-13.223-8.6758-14.203-108.86-2.6484-100.62 3.0039-105.44 1.625-115.92-1.0469 19.066 124.94-1.9688 115.07-2.7734 103.6 5.2383 7.7383 19.246-1.6133 22.961 0.37109-5.4141 67.305 96.52-0.77734 109.05-6.3594 84.508 1.2695 3.9219-23.477-12.574-30.672 1.2383-28.156 19.953-42.121 9.4609-24.797 16.68-16.809 11.055-7.2188 11.668-32.203-0.40234-17.141 16.98-9.6211 1.4023-9.457 10.551-11.547-2.8281-34.316 14.535-16.273 2.7148-19.746 16.293-12.34 8.8711-17.145 0.47266-9.8359z" fill="#025195"/>
</svg>
