<?xml version="1.0" encoding="UTF-8"?>
<svg width="512pt" height="512pt" version="1.1" viewBox="0 0 512 512" xmlns="http://www.w3.org/2000/svg">
 <path d="m449.06 448.77-2.9375-8.6758 7.2109-12.242 1.3281-23.27 11.734-11.441-8.7305-8.9336-6.1992-8.9727-4.1758-8.4922-2.8516-6.5938-1.2266-4.4219-73.551-58.43-75.992-62.254-77.07-65.102-3.918-150.68-158.29 0.15234 0.46875 43.137-9.2656 41.535 20.07 27.844 4.75 41.051 30.086 42.41 17.496 16.676-1.4219 11.645 33.828 69.785 40.469 50.062 5.5742 27.48 10.809 7.918 33.117 2.9883 18.711 15.25 16.953 1.2266 46.289 28.039 19.363 25.094 6.2422 18.258 48.266-6.9961 53.609-9.4727 5.6562-0.41797 3.8125-10.461-8.0742-6.2812z" fill="#025195"/>
</svg>
