<?xml version="1.0" encoding="UTF-8"?>
<svg width="512pt" height="512pt" version="1.1" viewBox="0 0 512 512" xmlns="http://www.w3.org/2000/svg">
 <path d="m56.867 150.33 150.82-151.43 252.06 254.08-173.47 177.14-75.227 76.949-1.1328-8.5273v-5.7266l0.91016-4.457-0.33984-3.8164 0.78516-6.3594 2.8359-7.6406 0.92578-5.0898v-5.7266l1.1016-12.727-6.2188-1.2734v-3.8125l-0.16016-4.457 0.16016-3.1836v-3.8164l1.2266-3.8164-0.61328-3.1875-0.61328-3.8125v-3.8203l1.543-5.0898-1.2891-4.4531-2.8789-4.4531-4.9336 0.63281-1.832-4.4531-1.2344-5.0898 0.65625-3.8203 1.2852-3.8203 5.0977-1.2734h3.1797l3.8203-1.4297 5.0898-0.55859 2.1406-1.8633-0.40625-5.6875v-3.8203l1.7656-4.4531 3.3555-5.0898v-3.8203l-14.402-31.812 0.58594-2.7578 0.83203-2.543-0.86328-2.543-0.42969-3.3945-1.2734-2.9727-1.6992-3.8203-2.1211-2.9688-2.1172-2.543-2.125-2.1211-2.9727-1.6992-2.1172 2.543 1.6992 3.8203-0.42578 2.1211-2.9688 1.6992-3.3945 0.42578-1.2734-2.125-1.6953-3.3945-0.85156-3.3906 0.42578-2.543-1.2734-2.5508-1.6953-2.9688-2.1211-2.9688-1.6992-2.0859-2.9688 0.035156h-2.5469l-1.6953-0.82812-0.84766-3.6523-1.6953-2.6719-1.6992-3.4609-1.2695-3-1.6992-3.8359-2.1211-3.8242-0.85156-4.2422-1.6914-4.6719-0.42578-3.6016-1.2695-4.4609-1.2773-2.9688-0.42188-2.5469-0.85156-2.9688-0.84375-1.6953-2.125-2.1172-2.5469-0.53906-3.3945-0.11328h-9.543l-5.2969-2.2734-4.6719-1.5117-4.2383-2.0273-4.2461-2.707-4.6641-0.50781-3.8203-2.1602-5.0859-2.9883-4.6719-3.4062-2.1172-3.8242-4.2422-2.9688-2.9688-2.9688-2.9688-2.5508-2.125-2.1211-1.2695-3.3945-1.2773-2.9688-0.84375-2.543-0.84766-2.9727-1.2773-2.9688-2.1172-2.9688-2.9727-2.5469-2.1172-2.1172-2.1211-2.5469-2.5508-2.9688-2.1172-3.8203-3.3945-3.3945-1.2695-3.8164-1.6992-3.3906-0.84766-2.125-0.84766-2.9688-2.8477-4.2422z" fill="#025195"/>
</svg>
