<?xml version="1.0" encoding="UTF-8"?>
<svg width="512pt" height="512pt" version="1.1" viewBox="0 0 512 512" xmlns="http://www.w3.org/2000/svg">
 <path d="m483.91 318.14-31.191-68.609-1.6953-26.727-30.156-49.668-25.797-54.773-10.309-49.344-12.5-0.63281-11.902-4.4688-6.9766 2.6641 0.94531 23.676-7.3594 6.4609-4.9102-11.719-96.035-6.8984-59.324-1.9297-9.1836-18.242-119.82 0.63281-33.637 3.4609-1.0117 5.1719 13.18 16.781-3.2852 13.41-4.4258 9.3008 67.004-8.0352 56.16 30.586 13.895 19.023 66.516-29.832 34.621 25.074 40.262 39.754 15.336 37.832-8.8008 42.176 6.8203 32.832 32.234 49.051 35.695 57.824 24.617 14.695 11.586 29.805 31.527 6.5977 25.676-13.863 9.0117-60.719z" fill="#025195"/>
</svg>
