<?xml version="1.0" encoding="UTF-8"?>
<svg width="512pt" height="512pt" version="1.1" viewBox="0 0 512 512" xmlns="http://www.w3.org/2000/svg">
 <path d="m460.32 305.9-8.0586-3.1719-1.0742-19-9.5703-18.164-16.418-9.8984 2.457-7.5117-5.6797-10.734-7.3906-22.395-27.984-18.531-11.105-23.16-20.66-15.117-6.3828-12.082-30.141-22.133-10.727-17.176-16.824-30.773-14.574-5.4023-22.902-15.602 12.352-19.395 8.6484-8.6602-101.94 2.9766-43.684 2.207-63.195 0.37109 23.594 123.31 21.793 98.734 12.797 30.992 7.8086 17.68-13.609 17.859-4.0742 31.926 5.0234 18.727-1.7539 17.754-1.9727 16.453 5.707 12.672 4.5234 11.723 13.75 26.68 87.227 2.0039 141.25 8.7852 7.3789 17.156 10.723-9.6016-1.7188-34.785 10.215-4.0117 17.559 6.3984 18.379 0.75781 12.824-58.102 32.344-75.598z" fill="#025195"/>
</svg>
