<?xml version="1.0" encoding="UTF-8"?>
<svg width="512pt" height="512pt" version="1.1" viewBox="0 0 512 512" xmlns="http://www.w3.org/2000/svg">
 <g fill="#025195">
  <path d="m204.02 172.61-11.977-22.586-14.797 9.7461-13.746 1.3242 14.605 26.266 11.848 0.36719 2.0586-1.0391 5.2344-1.2812 9.4102 7.125 15.02-3.7266-7.7734-14.742z"/>
  <path d="m253.22 208.02 39.629 5.4883 13.559-9.7188-49.445-7.2344z"/>
  <path d="m45.602 96.484-13.598 7.7031-5.957 9.4414 16.066 13.367 13.422 3.6289 10.895-9.2812 3.9219-17.504-4.1523-6.4961z"/>
  <path d="m370.62 238.85-24.047-15.379-16.863 3.75-11.574-11.656-6.543 1-3.7188 7.4141 7.6328 12.449 12.504 1.9531 6.7383 19.18 27.859-4.1484 8.5586-7z"/>
  <path d="m471.79 350.05-3.6211-8.5469-7.2344-1.457-2.168-12.535-10.758-11.461-59.367-26.645-3.9375 1.6328-1.5977 9.0938 6.9727 15.02-20.961 26.328 15.234 36.113 1.3008 30.852 24.258 10.215 8.2773-14.535 20.953-15.309 23.926-6.3672 22.891-20.883z"/>
 </g>
</svg>
