<?xml version="1.0" encoding="UTF-8"?>
<svg width="512pt" height="512pt" version="1.1" viewBox="0 0 512 512" xmlns="http://www.w3.org/2000/svg">
 <path d="m485.8 252.7-11.789-7.6797-3.75-10.652-8.832-4.8906-4.4414-7.4844-7.4336-15.039-24.121-9.1133-4.957-15.734-3.1172-8.832-0.55469-20.906 6.3789-7.6328-9.6836-15.652-1.1055-5.4297-95.094-1.1602-105.85-0.26562-98.512-1.0273-79.168-3.1328-9.6211-0.37109-1.1953 24.254 8.7148 13.602-2.207 10.727-4.5 15.766-6.6172 16.031 11.379 11.559-0.48438 9.0859 2.8555 10.051 4.0039 16.57-0.53516 8.2109 12.699 19.27 4 16.617-0.35547 22.969 5.25 3.4453 4.4844 12.035 6.6367 28.934 1.0039 17.156-2.7773 17.668 4.3359 18.16 67.906 2.1758 67.812 1.293 87.078 0.10938 82.703-2.3359 14.621 15.977 10.457 8.1484 1.3125-18.117 19.184-15.023 4.7852-15.141 9.5547-17.363-3.4375-15.324-9.4297-7.5859 6.4414-17.18 25.555-5.3633 16.918-6.0938 4.832-7.2539 13.223-22.828 3.3086-26.797z" fill="#025195"/>
</svg>
