<?xml version="1.0" encoding="UTF-8"?>
<svg width="512pt" height="512pt" version="1.1" viewBox="0 0 512 512" xmlns="http://www.w3.org/2000/svg">
 <path d="m372.2 314.62-5.6758-5.9844 6.5195-23.887-3.9609-98.105-3.9922-98.219-18.871-43.922-1.3203-22.082 0.011719-0.22266-0.22656-0.011719 0.027343 0.22656-48.418 0.89063-65.625 1.418-64.172 0.78125 3.707 6.4453 7.4883 4.2812 3.082 9.1445 9.9844 6.6992 6.625 7.2695-3.1367 22.859-11.562 19.355-4.2148 6.1445-14.523 5.0117-21.898 4.2891-5.6992 14.605 7.9648 6.5898 2.7617 13.133-8.3633 14.73-4.2656 12.879-16.566 12.617-1.3281 15.469-5.6992 21.082 5.7578 25.379 10.848 17.449 12.543 14.395 15.207 11.348 6.0898 3.8359 5.6055 16.09 1.1719 14.172 7.5664 3.5039 12.496-5.6055 12.777 13.508-3.5859 15.688-6.0391 12.414-4.1445 14.945 9.6016 12.629 13.426 11.781 7.6289 0.20703 17.914 18.34 6.8398 2.3789 5.4141 20.422-2.2344 12.762 9.1094 20.652 7.2734-2.3516 12.359 12.883-2.9336-12.77 4.4023-8.3438 18.168 4.125 16.613 7.3789 8.6875-7.2617-3.1953-18.434 15.07-7.6055 11.648-6.582-6.0352-7.8008 7.2188-12.055-0.68359-6.2852 1.5312-17.219 8.5352-23.105 13.121-19.008 4.2578-14.23 5.3711-5.375 0.03125-11.414z" fill="#025195"/>
</svg>
