<?xml version="1.0" encoding="UTF-8"?>
<svg width="512pt" height="512pt" version="1.1" viewBox="0 0 512 512" xmlns="http://www.w3.org/2000/svg">
 <path d="m397.23 342.75 5.1953-5.7109-0.77344-82.32-1.207-115.66-1.4414-107.57-0.21875-9.293-83.82 1.5078-95.871-0.57422-24.141 12.906-30.328 0.33594-8.0859-8.1367-1.9453 137.71-1.9805 137.55-10.949 32.914 7.4844 8.8086 4.6172 20.355-0.92188 15.969-7.9258 7.1055-7.0469 19.582-19.809 25.59-13.719 31.668-3.4609 23.969 12.133 3.3008 1.1914-13.094 24.102 9.5859 20.383-12.727 28.793 18.414 7.2383-11.5 21.742-11.16 20.145 14.066 10.477-13.211 16.387-23.637 5.8711 14.535 19.09 10.16 20.492-35.422 13.262-3.7969 12.152-20.508 13.062-8.8242 1.7578-22.832 22.062 4.0469 14.422-10.676 15.641-0.43359 3.8438-8.8594z" fill="#025195"/>
</svg>
