<?xml version="1.0" encoding="UTF-8"?>
<svg width="512pt" height="512pt" version="1.1" viewBox="0 0 512 512" xmlns="http://www.w3.org/2000/svg">
 <path d="m480.87 254.43-6.9727-9.125-9.8711-9.6367-3.8398-11.781-8.2891-11.859-0.41406-16.406-1.6719-7.4258-12.098-6.8438-5.6445-10.766-11.668 2.0977-13.043 5.1406-11.176-3.9258-14.656 3.0117-9.8984-5.8906-13.41-4.9141-17.328-17.086-11.27-7.125-21.203-0.92188-3.3672 3.8984 5.6758 15.957-2.418 5.9727-10.422 0.55078-9.4336 7.3672-14.781-2.3281-0.78906 15.254-8.5586 6.1055-7.7617 13.879-8.7773 2.7539-13.07 23.969-12.898-6.4531-4.1602-9.5938-10.531 16.039-6.7617 8.9844-13.672-9.0391-14.309 7.8086-4.6328 7.7891-19.512-11.793-13.375 8.832-16.234-5.9883-0.57422 8.7539-8.1445-2 0.46484 5.8945-7.0742 11.062 5.4219 7.4531-11.062 5.8281-14.289 6.6875 2.4805 17.312-8.3164 6.543-15.316-7.3477-16.859-4.3555-4.3398 7.6719 2.3828 12.012-2.0469 7.9297 1.1562 12.469-10.176 6.5352-14.41 8.2188 91.426 0.90234-0.27734-12.469 12.676-0.26562 2.0898 3.6094 39.941-2.7031 34.406-0.20703 37.395-0.28125 36.723 1.1016 18.328-1.625 56.43 1.0273 43.094-4.793 18.152-5.4961 12.836-5.6836 5.25-8.0234 16.809-10.512 6.1836-8.7852 1.125-6.5 19.129-10.57 23.59-25.316z" fill="#025195"/>
</svg>
