<?xml version="1.0" encoding="UTF-8"?>
<svg width="512pt" height="512pt" version="1.1" viewBox="0 0 512 512" xmlns="http://www.w3.org/2000/svg">
 <path d="m460.16 393.38 8.3086-47.66-2.5469-11.055-4.6758-18.41-13.633-12.254-7.0664-13.84 5.2852-18.848 1.5898-18.867-91.359 5.043-85.66 0.48828-5.1133-27.922 11.266-13.098 7.5508-27.504 7.582-23.961 17.699-18.379 3.3789-21.422 12.688-12.148-13.25-18.707 3.2344-14.078-14.852-22.41 7.832-16.613-7.0586-6.1055-79.992-0.36328-103.15 7.0938-91.336 1.6875 7.7344 120.06 15.945 12.414 5.668 17.281 8.7227 25.926 11.68 25.402 8.9336 15.184-8.5195 41.398-5.9883 12.336-7.9922 27.109 7.3008 7.3867 0.16797 22.527-14.43 15.191-9.7109 16.754 8.3945 14.785 85.551 1.4297 75.535 12.266 57.984 21.035 85.305 19.121 136.2-12.566z" fill="#025195"/>
</svg>
