<?xml version="1.0" encoding="UTF-8"?>
<svg width="512pt" height="512pt" version="1.1" viewBox="0 0 512 512" xmlns="http://www.w3.org/2000/svg">
 <path d="m489.67 306-71.418 1.6016-11.109-173.57-92.738 1.6875-90.016-0.20703-74.703 0.25-33.383-0.070313-97.668-1.7852-2.418 69.18 16.508-11.883 18.449-15.348 21.055-5.0508 14.316-14.055 31.086 5.8594 11.637-10 20.379-10.102 32.535 11.008 12.797 19.52 8.2578 17.418 15.559 4.6211 14.031 10.258-7.7539 14.672 22.441 8.1875 19.836 15.141 8.5977-6.5742 13.621 14.043-13.754 12.203-1.8438 11.039-18.191 12.883-12.102 30.41 14.246 7.4219 17.441-5.9844 6.3711 19.117 64.875 39.961-2.9297-117.98 16.883-48.211 6.0508 102.23 55.887 64.199 8.2852-9.5273 24.98-2.6445 40.234-47.75z" fill="#025195"/>
</svg>
