<?xml version="1.0" encoding="UTF-8"?>
<svg width="512pt" height="512pt" version="1.1" viewBox="0 0 512 512" xmlns="http://www.w3.org/2000/svg">
 <g fill="#025195">
  <path d="m301.21 135.77 46.09 8.7695 1.9492 0.37891 51.492-8.1602-29.492-33.109 7.2852-8.4258-19.395-2.3984-3.4961 8.2773-17.773-3.2812-12.238-23.527-56.922 7.1875-51.77 18.039-40.086-32.953-32.387-11.703 19.789-43.863-51.512 26.207-47.375 25.293-45.75 19.082-0.46875-0.42188 0.5 0.46484 3.6953-1.5234 0.042969 0.26172 8.9375 3.2383 3.8828 15.363 50.238 17.473 33.086 16.445 16.523 0.69531 11.371 1.4531 2.7969 13.906 13.711 5.7227 4.8789 11.934-3.7812 6.6523-3.0781 13.547 13 1.0898-4.7227 13.387 7.6445 10.113 0.054688-0.14062 1.5156 0.62109 35.848-52.656 40.062-6.957z"/>
  <path d="m474.79 306.22-22.57-7.7695-36.73 37.605-12.074-0.5-3.4375-21.008 32.547-34.105 4.6328-38.293-5.6914-37.953-44.312-31.938-50.148-16.355-8.1367 31.922-13.031 8.5586-10.504 41.371-5.4844-28.129-23.883 19.965-15.145 28.023-16.148 40.887-3.4805 35.434 19.648 51.918-2.2461 55.07-25.699 40.352-12.809 11.359 67.223 1.1328 58.785-0.41797 0.082032 6.5195 31.988-0.88672 28.449-0.375 23.551-1.1758 20.652-32.664 12.883-29.547 27.633-46.734-4.1406-34.125z"/>
  <path d="m492.85 387.32-1.5078 1.1523-0.003906 0.011719v0.023437z"/>
 </g>
</svg>
