<?xml version="1.0" encoding="UTF-8"?>
<svg width="512pt" height="512pt" version="1.1" viewBox="0 0 512 512" xmlns="http://www.w3.org/2000/svg">
 <path d="m382.95 167.1 8.5156-122.19-6.3164-17.914-84.695 1.1992-75.973 2.1055-1.3047 7.4648-13.652 7.2812-0.035157 13.598-9.9062 25.289-8.9102 5.4961-13.562 12.988-8.0078 19.461-16.676 32.984-1.5586 22.293 9.3438 24.574-3.5859 18.527 5.7266 5.3242-7.0625 13.676 11.758 19.215-3.1367 11.691 10.527 16.062-10.992 9.7891-3.4766 17.832-15.375 14.855-7.0742 19.832-7.1562 22.801-9.8281 10.625 3.4336 23.535 71.742 2.1836 76.648-1.4531-1.9023 15.75-4.9961 15.621 5.5 11.801 11.039 10.672 3.3594 15.559 1.7969 9.332 47.238 0.042968 49.414-23.18-8.5117-143.9z" fill="#025195"/>
</svg>
