<?xml version="1.0" encoding="UTF-8"?>
<svg width="512pt" height="512pt" version="1.1" viewBox="0 0 512 512" xmlns="http://www.w3.org/2000/svg">
 <path d="m490.51 235.6-4.7852-108.02-116.24 2.6602-116.27-1.1562-116.17-4.9688-115.91-8.8008-2.5781 61.996 8.9961 16.512-0.96875 10.562 6.5547 10.008 8.7188 6.3477 5.9141 9.625 9.6758 19.008 9.7227 9.3203 12.098 1.4648-5.4062 12.633-5.0859 15.094 2.2734 15.285-5.0391 3.4102-0.71094 14.996 6.8867 6.3242 8.6133-6.3516 4.7656-7.9219 4.8516 1.9609 4.3555 8.3516 3.4688 18.773 6.8398 7.7773 1.6445 15.418 2.2461 4.4141 8.3633 1.9727 4.6172 8.7852 6.4961 15.594 8.1641-7.6602 13.57 2.8789 1.4141-5.6836 23.375 4.8008 9.6562-1.4492 6.4492-11.34 4.4375 1.7773 3.7344 8.3555 4.4141 3.3867 0.84766-2.0469 0.94141-29.672 81.609 1.8125 64.496 1.1445 74.648-1.0898 69.125-1.4414 0.027344-53.684z" fill="#025195"/>
</svg>
