<?xml version="1.0" encoding="UTF-8"?>
<svg width="512pt" height="512pt" version="1.1" viewBox="0 0 512 512" xmlns="http://www.w3.org/2000/svg">
 <path d="m466.27 164.44-56.645 3.5195-55.918 3.0234-105.37 2.582-89.234-2.2227-1.3555 8.2383 0.53906 9.3672-10.809 2.793-8.2344 10.969-9.1758-1.3633-19.785 12.18-4.2422-5.832-13.547 8.7031 0.19922 4.7461-10.27 5.0781-5.3945 5.6875-12.348 5.4141-12.672 2.7305-10.918 1.4609-7.832 7.7539-3.8984 6.9219-11.527 3.793-1.6133 13.848 67.203 2.1602 5.418-1.8477 29.262-10.859 49.711 0.80469 25.246 2.9844 0.44531 5.7773 5.418-4.3633 8.5195 11.059-0.089844 7.6523 60.145-0.17578 62.57 60.535 19.258-4.5391 45.348-34.957 51.891-27.965 31.309-50.656z" fill="#025195"/>
</svg>
