<?xml version="1.0" encoding="UTF-8"?>
<svg width="512pt" height="512pt" version="1.1" viewBox="0 0 512 512" xmlns="http://www.w3.org/2000/svg">
 <path d="m485.29 367.84-8.7422-8.7617-9.4922-10.895-1.2773-5.8047-3.9883-12.719 1.1094-12.723-1.5664-12.172-6.1602-20.281-3.7891-8.3516-3.9141-2.1914-0.88281-16.383-3.6719-11.637-10-13.098-0.027343-5.875-3.6719-11.605-2.5273-7.0156-8.8398-0.75781-4.6016-3.2969-2.5234-5.8594-14.488-5.6133-13.684-8.8906-18.66 0.98438-12.441-0.11328-4.4609 3.293-19.266-5.5273-13.527-8.9258-104.57-0.88672-78.203-2.2031-101.72-4.7539-7.7461 141.44 107.14 4.9922-2.5898 68.773-0.054687 2.2852 0.09375-0.003906 95.211 2.457 70.84 0.65234 125.34-1.3516 75-2.3242z" fill="#025195"/>
</svg>
