<?xml version="1.0" encoding="UTF-8"?>
<svg width="512pt" height="512pt" version="1.1" viewBox="0 0 512 512" xmlns="http://www.w3.org/2000/svg">
 <path d="m476.49 384.72-86.254 16.48-2.75-9.793 12.902-8.6836-5.2227-6.6211-0.17969-62.297 9.6602-56.758-1.5312-67.223-8.5156-0.10156-1.2773-3.0195 3.0742-12.027-6.6562-20.977 4.9023-17.184-3.957-12.25-2.8438-24.109 1.7148-10.648 0.19922-16.594-87.965 5.0625-25.594 16.09-58.66 57.598-0.22656-0.15234-0.042969 0.027343 0.23047 0.11719 7.0469 12.512 4.3906 31.629-43.887 27.973-48.855-5.9922-46.75-2.707-31.035 10.234 8.0938 23.547-0.003906 0.21875 1.1289 7.8047-52.039 48.18-0.22656 22.059 94.641 0.23438 88.406-1.293 82.398-2.3008 13.695 12.258 7.543 7.0664-1.2578 9.0234 4.4375 11.648 10.633 5.2148 10.141 5.3047 48.586 29.793-2.8164 27.215 39.375-2.3906 84.645-30.137z" fill="#025195"/>
</svg>
