<?xml version="1.0" encoding="UTF-8"?>
<svg width="512pt" height="512pt" version="1.1" viewBox="0 0 512 512" xmlns="http://www.w3.org/2000/svg">
 <path d="m489.52 299.4-1.9062-65.652-14.164-70.723-0.80859-30.957-0.26953 0.007813-47.395 1.9844-97.266 2.5898-97.355 0.69141-54.066-0.42969-54.027-1.0547-50.887-1.5078-51.957-2.3945-1.4922 33.402 54.387 2.2656 54.461 1.6367 54.441 1.0742-0.90234 66.062-0.92188 64.43 13.246 7.4219 9.0586 5.6133 14.766-4.3945 8.2422 14.051 18.816 4.8789 16.73 3.6289 26.172-1.707 7.5039 16.219 16.859-6.9297 15.918 10.289 15.465 4.1133 8.6211-9.9219 8.7773 11.094 18.758-4.0977 8.3594 3.1055 9.3633-3.0742 9.4883-5.7852 11.73-0.47266 19.832 0.03125 12.637-5.0469 16.07 6.5352 24.867 12.156z" fill="#025195"/>
</svg>
