<?xml version="1.0" encoding="UTF-8"?>
<svg width="512pt" height="512pt" version="1.1" viewBox="0 0 512 512" xmlns="http://www.w3.org/2000/svg">
 <defs>
  <clipPath id="a">
   <path d="m94.781 195h269.22v102h-269.22z"/>
  </clipPath>
 </defs>
 <path d="m356.76 262.72v6.7148h6.7188v6.7188h20.152v-6.7188h26.867v-6.7148z" fill="#025195"/>
 <g clip-path="url(#a)">
  <path d="m363.48 229.13v-6.7188h-26.871l-6.7188-6.7188-80.609-13.434h-100.76l-13.434-6.7188h-20.152l-6.7188 20.152-13.434 6.7188v13.434l13.434 6.7188 6.7188 13.434-6.7188 6.7188-6.7188 33.586h33.586l33.586-6.7188 26.871 6.7188 26.871-6.7188 40.305 6.7188 47.023-6.7188 13.434-6.7188 13.434-20.152 20.152-6.7188h6.7188v-6.7188h-6.7188v-20.152z" fill="#025195"/>
 </g>
 <path d="m403.79 235.85v-6.7188h-6.7188v13.438h13.434v-6.7188z" fill="#025195"/>
</svg>
