<?xml version="1.0" encoding="UTF-8"?>
<svg width="512pt" height="512pt" version="1.1" viewBox="0 0 512 512" xmlns="http://www.w3.org/2000/svg">
 <path d="m380.47 118.41-108.01 0.31641 0.16406-13.742-15.305-19.863-9.7266 7.8398-0.79688-10.375-45.34-5.3594-89.281-1.4492-52.547 19.5-9.7344 3.3203-10.852 9.6055-16.004 22.023 25.934 20.102 16.832 7.4414 17.652 37.586 11.426 21.078 34.016 28.344 6.668 14.742 23.32 19.367 11.441 28.176 31.73 23.926 7.1094 27.008 5.9336 13.098-3.4531 8.6953 18.688 12.891 9.9922 22.16-0.10938 22.531 9.2891 4.3359 17.328 5.9961 104.28-61.312 85.328-75.191 36.406-84.07z" fill="#025195"/>
</svg>
