<?xml version="1.0" encoding="UTF-8"?>
<svg width="512pt" height="512pt" version="1.1" viewBox="0 0 512 512" xmlns="http://www.w3.org/2000/svg">
 <path d="m491.03 259.91 1.8203-15.547-3.7812-5.3164-5.125-9-4.0469-9.2852-2.6445-6.1953-6.2812-4.0703-6.6953-44.051-0.39453-23.664-8.0234 0.64844-6.6562 1.2148-2.0938-2.5234-15.629-6.6836-10.062-3.5078-7.5938 3.4922-12.164 0.59766-7.1836 0.65625-5.6406 3.8438-5.6445 2.1758-5.2266-1.6445-11.379 3.0977-5.7266-6.5312-4.9805 6.3555-9.6133-2.043-10.086-5.8125-10.125 4.7734-5.1094-9.7148-16 1.8633-10.375-1.707-11.695-2.4062-5.4922-8.3633-8.9219 3.1562-5.7305-3.1602-8.3555-4.1406-1.4414-39.551-1.5039-40.551-33.43 1.0391-33.457 0.69141-33.434 0.30469 0.39844 108.58 0.28125 78.211-32.93-0.046875-63.887-1.0586-31.93-1.0039 0.25391 3.5664 3.7539 6.7852 12.512 15.211 17.934 13.676 20.992 18.832 11.652 22.023 8.7539 23.133 18.84 12.836 30.523 12.637 22.934-33.242 29.84-1.2227 26.172 16.102 19.293 28.18 13.656 24.168 23.004 23.117 9.5547 29.133 11.547 19.34 30.398 11.566 27.688 7.668 14.836-2.2422-8.2109-13.895-3.2227-20.121-1.543-29.066 7.3438-19.477 18.883-21.469 35.312-20.988 30.582-33.973 30.207-11.855-3.5664-5.1875 3.043-6.4883 4.8398-6.0703-0.78125-8.3047-2.9297-2.4922 2.082-10.258z" fill="#025195"/>
</svg>
