<?xml version="1.0" encoding="UTF-8"?>
<svg id="Layer_1" data-name="Layer 1" xmlns="http://www.w3.org/2000/svg" viewBox="0 0 967 950">
  <defs>
    <style>
      .cls-1 {
        fill: none;
      }

      .cls-1, .cls-2 {
        stroke-width: 0px;
      }

      .cls-2 {
        fill: #025195;
      }
    </style>
  </defs>
  <path class="cls-1" d="M967,950H0V0h967v950ZM479.72,763.06c-.28-3.24-.18-4.89-.61-6.39-1.1-3.79-2.37-7.53-3.69-11.25-4.2-11.92-.14-22.03,7.96-29.04,3.69-3.19,6.6-7.28,10.31-10.44,3.47-2.97,7.21-6.5,11.4-7.58,6.6-1.7,11.42-5.17,15.02-10.44,3.21-4.69,7.27-7.8,12.44-10.01,9.93-4.25,19.72-6.92,30.7-3.51,4.88,1.52,10.43,2.52,15.04-2.87,3.41-3.99,7.41-3.29,11.38.38,1.93,1.78,3.4,4.18,5.55,5.57,2.95,1.9,6.26,4.06,9.58,4.38,4.49.44,9.15-.77,14.13-1.31.05-.43.23-1.85.43-3.48,2.52-.16,4.8-.31,7.35-.48-.1-1.76-.31-3.38-.25-4.98.22-5.63-1.17-7.19-6.84-7.43-1-.04-2-.04-3-.06-3.29-.07-6.57-.4-6.8-4.67-.25-4.6,3.59-4.84,6.56-5.04,9.43-.62,18.88-.97,28.33-1.17,3.51-.07,5.84-1.05,7.62-4.34,1.28-2.36,3.77-4.07,5.72-6.07,1.1,2.46,2.2,4.92,3.32,7.36.13.28.4.5.81.98,1.3-.34,2.76-.62,4.14-1.11,8.12-2.93,16.51-3.96,25.06-3.19,5.69.51,11.09,1.99,15.17,6.56,5.24,5.88,7.73,6.11,14.37,1.73,1.8-1.19,3.62-2.36,5.42-3.55,7.61-5.02,15.05-4.24,21.78,1.71,4.92,4.35,10.29,8.19,15.44,12.28.6.48,1.3,1.07,1.53,1.75,2.17,6.48,5.92,12.67,2.57,20.02-.9,1.98-.14,4.73-.14,7.58,1.83-1.15,3.17-1.98,5.6-3.5.36,3.1.68,5.37.87,7.65.17,2.09-.58,4.71.42,6.2,3.72,5.58,7.98,10.8,12.08,16.11.24.32.92.4,1.4.42,3.7.13,5.12,2.48,5.83,5.71.94,4.3,2.96,7.34,7.78,8.5,4.69,1.13,7.34,4.83,8.68,9.49.38,1.32,1.44,3.51,2.15,3.49,6.2-.13,6.22,4.04,5.86,8.54,1.17,0,2.09.26,2.75-.04,5.37-2.43,7.5-9.67,5.33-15.92-.92-2.65-.84-5.73-.78-8.6.04-2.44.86-4.86,1.06-7.32,1.02-12.49-2.04-23.46-10.81-32.99-3.52-3.82-5.28-9.28-7.74-14.04-1.32-2.56-2.21-5.36-3.7-7.8-1.54-2.53-4.01-4.53-5.32-7.15-5.15-10.31-10.2-20.68-14.84-31.22-1.5-3.4-1.81-7.37-2.35-11.12-1.64-11.26,2.02-21.27,7.69-30.72,1.84-3.08,3.28-7.85,5.91-8.69,5-1.59,7.23-4.36,8.56-8.88.29-.98,1.41-1.95,2.39-2.45,6.01-3.05,7.52-8.71,9.79-14.49,2.45-6.23,4.51-13.98,14.18-13.67,2.99.1,5.25-2.34,5.65-5.93.78-7.07,4.47-12.21,10.64-15.83,3.36-1.97,6.33-4.59,9.37-6.84-2.57-.17-4.86-.31-7.14-.46,5.15-5.3,5.15-5.33-.72-12.28,2.87-.49,5.18-1.4,7.35-1.16,5.43.6,9.6-3.68,8.86-8.74-5.99-4.34-12.92,3.29-19.37-2.06,4.07-3.52,7.56-6.49,11-9.52,3.39-3,3-5.79-1.14-7.85-1.63-.81-3.46-1.21-5.06-2.07-5.01-2.69-8.15-10.39-6.31-15.86-1.99-.7-4.31-1-5.9-2.24-1.44-1.12-2.07-3.26-3.06-4.95,1.39-.58,2.78-1.15,3.14-1.3-1.72-3.04-4.06-6.3-5.49-9.93-1.61-4.08-2.37-8.48-3.56-12.73-1.67-5.93-.02-11.46,4.67-14.74,1.01-.71,2.45-.81,3.9-1.25-.03,6.87,1.65,13.42,5.04,19.65.47.87.79,1.84,1.17,2.76,2.15,5.2,7.53,7.84,12.92,5.77,4.82-1.85,2.57-6.33,2.41-9.63-.08-1.72-2.1-3.41-3.41-4.98-1.45-1.74-3.45-3.12-4.48-5.05-.61-1.14-.3-3.44.53-4.46.64-.8,2.87-.9,4.14-.5,3.46,1.09,5.83.22,7.34-3.04,3.69-8.02,4.53-16.5,3.81-25.18-.09-1.04-.76-2.55-1.58-2.91-5.92-2.62-3.84-6.44-2.07-10.61,3.25-7.65,6.26-15.31,15.08-18.4,3.44-1.2,6.84-2.59,10.11-4.2,3.83-1.89,8.42-3.34,10.98-6.4,2.65-3.17,5.4-5.26,8.98-7.05,5.3-2.65,5.27-7.55.47-11.15-2.06-1.54-4.78-3.12-5.55-5.28-1.41-3.94-2.37-8.37-2.14-12.52.45-8.41,1.44-16.84,3.04-25.1.51-2.62,3.27-5.35,5.71-6.93,3.68-2.38,5.47-5.6,6.14-9.53,1.25-7.4,1.88-8.02,6.94-6.91,3.63-2.58,6.36-4.52,9.46-6.73.97-1.18,2.61-2.71,3.67-4.58,1.6-2.79,3.18-5.73,3.87-8.81.16-.71-3.36-2.14-5.04-3.42-1.28-.98-2.31-2.28-3.49-3.4-1.4-1.32-2.76-3.56-4.3-3.72-4.93-.51-6.72-3.83-8.16-7.65-1.74-4.6-3.49-9.21-4.91-13.92-1.54-5.11-3.81-9.09-9.28-11.22-2.98-1.16-4.42-1.28-5.86,1.59-1.86,3.7-4.91,5.19-9.05,4.57-1.06-.16-2.19.17-3.31.27-1.69,9.98-4.84,19.52-2.2,29.52.5,1.9.87,3.84,1.3,5.76,1.36,6.02,1.53,11.84-2.68,16.98-3.14,3.84-6.19,7.77-9.44,11.52-.81.94-2.15,1.55-3.36,2-12.22,4.49-24.52,8.8-36.7,13.4-7.61,2.88-15.31,5.89-17.87,14.89-1.32,4.66-3.13,8.9-7.13,12.09-.79.63-.64,3.47.06,4.75,3.39,6.21,3.37,8.14-1.71,12.98-2.37,2.26-4.92,4.59-7.82,5.98-8.19,3.91-16.58,7.41-24.95,10.92-2.45,1.03-3.34,2.11-1.3,4.3,2.85,3.07,1.72,5.68-.88,8.19-2.13,2.07-4.24,4.17-6.26,6.34-8.29,8.91-16.51,17.88-24.87,26.73-.94.99-2.56,1.38-3.91,1.92-2.87,1.14-5.71,2.44-8.68,3.24-3.7,1-7.6,2.49-11.25,2.13-10.6-1.04-12.78-4.73-9.33-14.94,1.35-3.99,3.61-7.67,5.26-11.58.81-1.91,2.07-4.26,1.58-5.96-1.7-5.94-3.57-11.95-6.42-17.39-1.43-2.73-5.08-4.3-7.73-6.39-1.68,2.6-3.2,5.33-5.11,7.76-1.34,1.7-3.37,4.3-4.8,4.12-1.91-.24-4.29-2.47-5.07-4.41-.73-1.8.01-4.47.76-6.52,1.08-2.94,2.9-5.59,4.14-8.47,2.9-6.75-.24-15.67-6.79-18.75-4.59-2.16-9.36-3.97-14.14-5.65-2.73-.96-4.6.3-5.84,3.05-1.33,2.96-2.6,6.32-4.9,8.4-5.56,5.03-8.87,10.87-9.62,18.34-.43,4.23-2.49,8.6-1.82,12.57.96,5.75,3.1,11.52,5.84,16.69,5.8,10.95,2.75,20.95-2.22,30.85-2.45,4.88-7.05,6.48-12.66,5.16-6.15-1.45-8.26-4.18-9.15-10.1-.94-6.32-2.75-12.5-3.74-18.81-.59-3.75-.68-7.67-.36-11.46.38-4.59,1.63-9.09,2.13-13.68.35-3.16.07-6.39.07-10.19-3.45,1.99-6.02,3.48-8.58,4.96-.5-.4-1-.79-1.5-1.19,1.5-3.33,3.03-6.64,4.49-9.98,2-4.59,3.68-9.34,5.99-13.76,1.44-2.77,3.36-5.67,5.84-7.44,3.43-2.44,7.8-3.52,11.38-5.8,8.02-5.12,16.65-6.82,25.99-5.9,1.15.11,2.37-.52,4.31-.99-4.62-6.25-10.96-6.99-16.93-7.89-9.32-1.4-17.98.65-25.92,6.05-4.8,3.28-8.38,2.72-12.21-1.56-3.55-3.97-7.55-3.04-11.83-2.05-1.9.44-3.93.31-5.9.44.64-1.93,1-4.03,1.99-5.76,1.53-2.65,3.5-5.05,5.71-8.16-1.62,0-2.07-.14-2.26.02-8.05,6.86-16.12,13.69-24.1,20.64-6.56,5.71-8.86,5.83-15.41.4-9.46-7.84-9.49-11.78-.04-19.51,3.7-3.03,7.54-5.89,11.83-9.23-2.81-.6-4.76-1-6.71-1.42-4.7-1.02-9.27-1.85-13.65,1.49-1.12.85-3.41.53-5.06.22-2.1-.39-4.1-1.9-6.14-1.9-4.5-.02-7.87-1.56-10.93-4.89-2.75-2.99-6.21-4.11-10.12-1.21-4.9,3.62-9.79,2.04-14.33-.88-2.03-1.31-4-2.95-5.44-4.85-2.16-2.85-4.57-2.38-7.47-1.74-6.22,1.38-12.52,3.52-18.78,3.47-44.94-.39-89.89-1.15-134.83-2.03-9.12-.18-18.23-1.32-27.33-2.16-6.96-.65-13.91-1.4-20.83-2.33-14.98-2-29.96-4.02-44.91-6.27-12.72-1.92-25.49-3.68-38.04-6.42-16.96-3.7-33.92-7.64-50.53-12.64-18.43-5.54-36.47-12.38-54.68-18.65l-7.08-2.43c-.5.37-1,.75-1.5,1.12,1.33,3.54,2.4,7.21,4.04,10.6,2.36,4.86-2.28,6.75-4.04,9.69-.55.92-3.96,1.04-5.49.31-5.33-2.54-10.44-5.55-15.58-8.48-5.95-3.39-7.76-2.47-7.97,4.24-.14,4.66-.36,9.33-.26,13.99.26,11.82-.65,23.5-3.96,34.89-5.56,19.13-13.17,37.47-23.93,54.2-6,9.33-6.26,18.91-5.31,29.15.22,2.4.13,5.05-.66,7.29-3.09,8.75-4.78,18.16-11.65,25.26-.93.96-1,3.98-.19,5.2,5.23,7.88,4.97,16.57,3.4,25.08-.92,4.99-.22,8.91,1.98,13.3,3.67,7.32,6.72,14.95,9.91,22.5.5,1.17.27,2.63.5,3.94.63,3.57.49,7.59,2.15,10.61,3.47,6.3,4.63,12.18,3.71,19.63-.6,4.85,3.58,10.63,6.5,15.46,2.25,3.73,3.23,6.56.14,10.16-2.1,2.43-3.71,4.94-1.72,8.75,1.04,1.99.64,5.56-.48,7.69-2.58,4.91.89,5.95,3.93,7.07,1.79.66,3.95.43,5.95.39,4.5-.07,8.27,1.54,10.67,5.29,5.72,8.92,14.89,13.59,23.12,19.46,2.24,1.6,4.7,3.48,5.91,5.83,2.46,4.77,4.37,9.88,6.08,14.99,1.26,3.77,3.08,6.77,7.24,7.19,8.59.87,17.2,1.65,25.82,2.1,4.28.22,8.24,0,10.27,4.99.57,1.4,2.72,2.3,4.32,3.11,17.08,8.7,34.28,17.2,51.28,26.06,9.32,4.86,18.65,9.01,29.42,9.57,9.95.52,19.86,1.82,29.77,2.96,3.8.44,6.37.05,5.7-4.72-.61-4.37,1.79-6.06,5.79-6.05,6.83,0,13.68-.2,20.49.21,4.52.27,8.82,1.9,10.65,6.69,3.16,8.3,9.56,13.23,17.22,16.86,5.89,2.79,9.31,7.54,10.38,13.73,1.52,8.81,5.98,15.04,14.36,18.34.3.12.55.38.84.54,11.96,6.6,13.56,6.19,24.32-2.06,4.15-3.18,9.31-6.81,14.14-7,12.45-.49,19.74,8.32,25.83,17.9,3.1,4.87,5.28,10.4,8.78,14.93,6.91,8.94,11.64,18.58,14.05,29.71,2,9.29,7.45,15.71,17.96,17.32,4.99.76,9.56,4.15,14.35,6.29,2.53,1.13,5.11,2.15,8.82,3.7l-.07.1Z"/>
  <path class="cls-2" d="M479.72,763.06c-3.71-1.55-6.29-2.57-8.82-3.7-4.79-2.14-9.36-5.53-14.35-6.29-10.51-1.6-15.96-8.03-17.96-17.32-2.4-11.14-7.14-20.77-14.05-29.71-3.5-4.53-5.69-10.05-8.78-14.93-6.09-9.59-13.38-18.39-25.83-17.9-4.83.19-9.99,3.82-14.14,7-10.76,8.25-12.36,8.66-24.32,2.06-.29-.16-.54-.42-.84-.54-8.38-3.3-12.84-9.53-14.36-18.34-1.07-6.19-4.48-10.94-10.38-13.73-7.66-3.63-14.05-8.56-17.22-16.86-1.83-4.79-6.12-6.42-10.65-6.69-6.81-.41-13.66-.2-20.49-.21-4,0-6.4,1.68-5.79,6.05.67,4.77-1.9,5.16-5.7,4.72-9.91-1.14-19.82-2.45-29.77-2.96-10.77-.56-20.1-4.71-29.42-9.57-17-8.87-34.19-17.36-51.28-26.06-1.59-.81-3.75-1.72-4.32-3.11-2.03-4.99-5.99-4.77-10.27-4.99-8.62-.44-17.23-1.23-25.82-2.1-4.17-.42-5.98-3.41-7.24-7.19-1.71-5.11-3.61-10.21-6.08-14.99-1.21-2.34-3.66-4.23-5.91-5.83-8.23-5.87-17.4-10.54-23.12-19.46-2.4-3.75-6.17-5.36-10.67-5.29-1.99.03-4.16.27-5.95-.39-3.04-1.12-6.51-2.17-3.93-7.07,1.12-2.13,1.52-5.7.48-7.69-1.99-3.82-.38-6.32,1.72-8.75,3.1-3.59,2.11-6.43-.14-10.16-2.91-4.84-7.09-10.61-6.5-15.46.92-7.45-.24-13.33-3.71-19.63-1.66-3.02-1.52-7.03-2.15-10.61-.23-1.31,0-2.77-.5-3.94-3.19-7.55-6.24-15.18-9.91-22.5-2.2-4.38-2.91-8.3-1.98-13.3,1.57-8.52,1.83-17.21-3.4-25.08-.81-1.22-.74-4.24.19-5.2,6.87-7.1,8.56-16.51,11.65-25.26.79-2.24.89-4.89.66-7.29-.95-10.23-.68-19.82,5.31-29.15,10.76-16.74,18.37-35.07,23.93-54.2,3.31-11.39,4.22-23.07,3.96-34.89-.1-4.66.12-9.33.26-13.99.21-6.72,2.02-7.63,7.97-4.24,5.14,2.93,10.25,5.94,15.58,8.48,1.53.73,4.94.61,5.49-.31,1.76-2.94,6.4-4.83,4.04-9.69-1.64-3.39-2.71-7.06-4.04-10.6.5-.37,1-.75,1.5-1.12l7.08,2.43c18.21,6.27,36.25,13.11,54.68,18.65,16.61,4.99,33.57,8.93,50.53,12.64,12.55,2.74,25.32,4.5,38.04,6.42,14.94,2.26,29.93,4.27,44.91,6.27,6.92.93,13.88,1.68,20.83,2.33,9.1.84,18.21,1.98,27.33,2.16,44.94.89,89.88,1.65,134.83,2.03,6.25.05,12.55-2.09,18.78-3.47,2.9-.64,5.31-1.1,7.47,1.74,1.44,1.91,3.42,3.55,5.44,4.85,4.54,2.93,9.43,4.5,14.33.88,3.92-2.89,7.37-1.78,10.12,1.21,3.06,3.33,6.43,4.87,10.93,4.89,2.05,0,4.04,1.51,6.14,1.9,1.65.31,3.95.63,5.06-.22,4.37-3.34,8.94-2.51,13.65-1.49,1.95.42,3.9.83,6.71,1.42-4.29,3.34-8.13,6.2-11.83,9.23-9.45,7.72-9.41,11.66.04,19.51,6.55,5.43,8.85,5.31,15.41-.4,7.98-6.94,16.05-13.78,24.1-20.64.19-.16.64-.02,2.26-.02-2.21,3.11-4.18,5.51-5.71,8.16-1,1.73-1.35,3.83-1.99,5.76,1.97-.13,4,0,5.9-.44,4.28-.99,8.29-1.92,11.83,2.05,3.83,4.28,7.4,4.84,12.21,1.56,7.93-5.41,16.6-7.46,25.92-6.05,5.97.9,12.31,1.65,16.93,7.89-1.94.47-3.16,1.1-4.31.99-9.34-.91-17.97.78-25.99,5.9-3.57,2.28-7.95,3.36-11.38,5.8-2.47,1.76-4.39,4.67-5.84,7.44-2.31,4.42-3.99,9.17-5.99,13.76-1.45,3.35-2.99,6.66-4.49,9.98.5.4,1,.79,1.5,1.19,2.57-1.48,5.13-2.96,8.58-4.96,0,3.8.28,7.03-.07,10.19-.5,4.58-1.74,9.09-2.13,13.68-.32,3.79-.23,7.71.36,11.46.99,6.31,2.8,12.5,3.74,18.81.88,5.92,2.99,8.65,9.15,10.1,5.61,1.32,10.21-.27,12.66-5.16,4.96-9.9,8.02-19.9,2.22-30.85-2.74-5.18-4.89-10.95-5.84-16.69-.66-3.97,1.4-8.34,1.82-12.57.75-7.47,4.06-13.31,9.62-18.34,2.3-2.08,3.56-5.44,4.9-8.4,1.24-2.75,3.11-4.01,5.84-3.05,4.79,1.68,9.56,3.49,14.14,5.65,6.55,3.08,9.69,12,6.79,18.75-1.24,2.89-3.06,5.54-4.14,8.47-.75,2.05-1.49,4.72-.76,6.52.78,1.94,3.16,4.17,5.07,4.41,1.43.18,3.46-2.42,4.8-4.12,1.91-2.43,3.42-5.16,5.11-7.76,2.65,2.09,6.31,3.66,7.73,6.39,2.84,5.44,4.71,11.45,6.42,17.39.49,1.71-.77,4.06-1.58,5.96-1.65,3.9-3.91,7.58-5.26,11.58-3.45,10.21-1.27,13.9,9.33,14.94,3.65.36,7.56-1.14,11.25-2.13,2.97-.8,5.81-2.1,8.68-3.24,1.35-.54,2.97-.93,3.91-1.92,8.36-8.84,16.58-17.82,24.87-26.73,2.02-2.17,4.13-4.28,6.26-6.34,2.6-2.51,3.73-5.13.88-8.19-2.04-2.19-1.15-3.27,1.3-4.3,8.37-3.52,16.76-7.02,24.95-10.92,2.9-1.39,5.45-3.72,7.82-5.98,5.08-4.84,5.1-6.78,1.71-12.98-.7-1.28-.85-4.12-.06-4.75,4-3.19,5.8-7.43,7.13-12.09,2.56-9,10.26-12.02,17.87-14.89,12.18-4.6,24.48-8.91,36.7-13.4,1.21-.44,2.54-1.06,3.36-2,3.25-3.75,6.3-7.68,9.44-11.52,4.2-5.14,4.04-10.96,2.68-16.98-.43-1.92-.8-3.86-1.3-5.76-2.65-10,.51-19.54,2.2-29.52,1.12-.11,2.26-.43,3.31-.27,4.14.62,7.19-.87,9.05-4.57,1.44-2.87,2.88-2.75,5.86-1.59,5.46,2.13,7.74,6.11,9.28,11.22,1.42,4.7,3.17,9.32,4.91,13.92,1.45,3.82,3.24,7.15,8.16,7.65,1.55.16,2.9,2.4,4.3,3.72,1.18,1.12,2.21,2.42,3.49,3.4,1.68,1.29,5.2,2.71,5.04,3.42-.7,3.08-2.28,6.01-3.87,8.81-1.06,1.86-2.7,3.4-3.67,4.58-3.1,2.21-5.83,4.15-9.46,6.73-5.05-1.11-5.69-.49-6.94,6.91-.66,3.93-2.46,7.15-6.14,9.53-2.44,1.58-5.2,4.31-5.71,6.93-1.6,8.26-2.59,16.69-3.04,25.1-.22,4.15.73,8.57,2.14,12.52.77,2.15,3.49,3.73,5.55,5.28,4.8,3.6,4.83,8.49-.47,11.15-3.58,1.79-6.33,3.89-8.98,7.05-2.56,3.06-7.15,4.51-10.98,6.4-3.27,1.61-6.67,3-10.11,4.2-8.82,3.09-11.83,10.75-15.08,18.4-1.77,4.17-3.85,7.99,2.07,10.61.82.36,1.49,1.88,1.58,2.91.72,8.68-.12,17.16-3.81,25.18-1.5,3.26-3.88,4.13-7.34,3.04-1.27-.4-3.5-.3-4.14.5-.83,1.03-1.14,3.32-.53,4.46,1.03,1.93,3.04,3.31,4.48,5.05,1.31,1.57,3.33,3.26,3.41,4.98.16,3.3,2.41,7.77-2.41,9.63-5.38,2.07-10.77-.58-12.92-5.77-.38-.92-.7-1.88-1.17-2.76-3.38-6.23-5.06-12.78-5.04-19.65-1.46.45-2.89.55-3.9,1.25-4.69,3.27-6.34,8.81-4.67,14.74,1.2,4.24,1.95,8.65,3.56,12.73,1.43,3.63,3.77,6.89,5.49,9.93-.35.15-1.74.72-3.14,1.3.99,1.69,1.63,3.83,3.06,4.95,1.59,1.24,3.9,1.53,5.9,2.24-1.85,5.47,1.29,13.17,6.31,15.86,1.6.86,3.43,1.26,5.06,2.07,4.14,2.06,4.54,4.85,1.14,7.85-3.44,3.04-6.93,6.01-11,9.52,6.44,5.35,13.37-2.28,19.37,2.06.75,5.06-3.43,9.34-8.86,8.74-2.18-.24-4.48.67-7.35,1.16,5.87,6.94,5.87,6.98.72,12.28,2.29.15,4.57.3,7.14.46-3.04,2.25-6.02,4.87-9.37,6.84-6.17,3.62-9.86,8.76-10.64,15.83-.4,3.59-2.66,6.02-5.65,5.93-9.68-.31-11.74,7.44-14.18,13.67-2.27,5.77-3.77,11.44-9.79,14.49-.98.5-2.1,1.47-2.39,2.45-1.33,4.52-3.56,7.29-8.56,8.88-2.63.84-4.06,5.62-5.91,8.69-5.67,9.45-9.33,19.46-7.69,30.72.55,3.75.86,7.72,2.35,11.12,4.64,10.54,9.69,20.91,14.84,31.22,1.3,2.61,3.78,4.62,5.32,7.15,1.49,2.44,2.38,5.24,3.7,7.8,2.46,4.76,4.23,10.22,7.74,14.04,8.77,9.53,11.83,20.5,10.81,32.99-.2,2.45-1.01,4.87-1.06,7.32-.05,2.87-.14,5.95.78,8.6,2.17,6.25.04,13.49-5.33,15.92-.66.3-1.57.04-2.75.04.36-4.51.35-8.68-5.86-8.54-.71.02-1.77-2.18-2.15-3.49-1.34-4.66-3.99-8.36-8.68-9.49-4.82-1.16-6.84-4.2-7.78-8.5-.7-3.23-2.13-5.57-5.83-5.71-.48-.02-1.15-.1-1.4-.42-4.1-5.32-8.36-10.54-12.08-16.11-1-1.49-.25-4.11-.42-6.2-.19-2.28-.51-4.56-.87-7.65-2.43,1.52-3.77,2.36-5.6,3.5,0-2.86-.77-5.6.14-7.58,3.35-7.35-.4-13.54-2.57-20.02-.23-.68-.93-1.27-1.53-1.75-5.15-4.1-10.52-7.93-15.44-12.28-6.73-5.95-14.17-6.73-21.78-1.71-1.8,1.19-3.61,2.36-5.42,3.55-6.64,4.38-9.13,4.15-14.37-1.73-4.08-4.57-9.47-6.05-15.17-6.56-8.55-.77-16.94.26-25.06,3.19-1.38.5-2.84.77-4.14,1.11-.41-.48-.68-.7-.81-.98-1.12-2.45-2.21-4.91-3.32-7.36-1.95,2-4.43,3.71-5.72,6.07-1.79,3.29-4.11,4.26-7.62,4.34-9.45.2-18.9.55-28.33,1.17-2.97.2-6.81.44-6.56,5.04.23,4.27,3.51,4.6,6.8,4.67,1,.02,2,.02,3,.06,5.67.24,7.05,1.8,6.84,7.43-.06,1.61.15,3.22.25,4.98-2.54.17-4.83.31-7.35.48-.2,1.63-.38,3.05-.43,3.48-4.98.54-9.63,1.75-14.13,1.31-3.32-.32-6.63-2.48-9.58-4.38-2.15-1.39-3.62-3.79-5.55-5.57-3.97-3.67-7.97-4.37-11.38-.38-4.61,5.4-10.16,4.39-15.04,2.87-10.98-3.41-20.77-.74-30.7,3.51-5.17,2.21-9.23,5.32-12.44,10.01-3.6,5.26-8.41,8.74-15.02,10.44-4.19,1.08-7.92,4.61-11.4,7.58-3.7,3.17-6.62,7.25-10.31,10.44-8.1,7.01-12.16,17.12-7.96,29.04,1.31,3.72,2.59,7.46,3.69,11.25.43,1.49.33,3.15.61,6.39l.07-.1Z"/>
</svg>