<?xml version="1.0" encoding="UTF-8"?>
<svg width="512pt" height="512pt" version="1.1" viewBox="0 0 512 512" xmlns="http://www.w3.org/2000/svg">
 <path d="m230.4 209.41c-0.51172 0-0.51172 0.51562 0 0v1.5352h0.51172v3.0703h-0.51172v0.51172h-1.0234v1.5352l6.1445 0.003906v-3.0703h1.0234l0.51172-1.0234v-0.51172l-1.0234-0.51172 0.51172-4.0977h-2.0469l-0.51172 1.0234h-2.0469zm-3.0703-29.184h4.6094l1.5352-2.0469v-0.51172h-5.1211l-0.51172 0.51172zm-22.527-1.5352h3.0703l0.51172 0.51172h1.0234l0.51172 0.51172h10.242l1.0234-1.5352-0.51172-2.0469h-2.5586l-1.0234-1.0234-3.0703 1.0234h-1.0234l-0.51172 1.0234h-0.51172l-0.51172-1.0234h-1.5352l-0.51172-0.51172h-2.5586l-0.51172 1.0234h-1.543l-0.51172 0.51172h-1.0234l-0.51172 1.0234zm-24.066-34.816h4.6094v-2.0469l-1.5352-1.5352-3.0703-1.0234h-1.5391l-1.5352 1.5352v2.0469zm-6.1406 3.5859 2.5586 3.5859 0.51172 2.5586 4.0977 4.0977h3.0703v-2.0469l1.5352-1.0234v-0.51172l-1.0234-2.5586-3.0703-3.0781v-1.5352l-1.5352-1.0234-3.0703 0.51172-2.5586-1.0234zm-32.77 11.262h-3.5859v2.5586s1.0234 1.5352 1.0234 2.0469l1.5352 1.5352 2.0469 2.5586h2.0469v-2.5586l-0.50781-1.0195-1.5352-1.5352v-1.5352zm208.89 44.547h2.5625v-3.5859h-1.5352v1.0234h-1.0234zm55.809 91.133 0.51172 0.51172v1.0234l1.0234 1.0234h2.5586v-0.51172h3.5859v-0.51172h1.5352v-1.5352l-1.0234-1.0234h-2.5586v-0.51172h-1.0234c0-0.51172-0.51172-1.0234-0.51172-1.0234h-4.0977l-1.0234 0.51172v2.0469zm-155.14-99.84c-0.51172 0.51172-0.51172 0.51172 0 0v2.0469l2.0469 1.0234v0.51172l-1.0234 0.51172v0.51172 1.5352l1.0234 1.5352 0.51172 0.51172v2.5586l1.0234 1.0234h1.0234l0.51172-0.51172 1.5352-1.0234 0.51172 1.0234-3.0703 1.5352 0.003906 2.5703h4.6094v2.0469l1.0234 0.51172 1.0234 1.0234h1.5352l0.51172-2.5586 0.51172-1.0234 0.51172 0.51172h2.5586l1.0234-0.51172-0.51172-3.5859 1.5352-0.51172 1.0234 1.5352v1.5352l-0.51172 1.0234 1.0273 2.5625v0.51172l3.0703 1.0234h0.51172l1.0234-1.5352v-5.1211l0.51172-1.5352h0.51172v1.5352l1.0234 2.0469 2.5586 0.51172h0.51172l4.6094-5.1211 2.5586 0.51172 2.0469 1.5352 1.0234 1.5352 2.5586 1.0234 1.5352 2.0469 2.0469 1.0234h0.51172l1.0234-1.5352v-2.5586l1.0234 0.51172c0 0.51172 0.51172 1.5352 0.51172 1.5352s0 0.51172 1.5352 0l1.5352-1.0234 0.51172 2.5586v3.0703l1.0234 1.0234 0.51172-0.51172v-1.5352l1.0234-0.51172 1.0234 2.0469h2.5586l2.5586 0.51172c0 0.51172 0.51172 1.0234 0.51172 1.5352 0 1.0234 1.0234 1.5352 1.0234 1.5352l0.51172 1.5352 2.0469 1.5352 1.5352-4.0977-1.0234-9.2188 1.0234-4.0977-0.51172-2.0469 0.023437-3.0547-2.5586-0.51172-2.0469-3.5859-0.51562-1.0234-1.5352-0.51172-1.0234-1.0234v-3.0703h2.0469l1.5352 2.0469 2.0469 1.0234 1.0234-0.51172 0.51172-2.0469-1.0234-3.5859 0.51172-1.0234-0.51172-1.5352 0.51172-0.51172v2.0469h2.5586v-1.5352h1.0234l0.51172-1.0234h1.5352l1.0312 1.0234v0.51172h1.0234v2.0469l-2.5625 2.5625v0.51172l1.0234 2.5586 3.0703 1.0234h0.51172l1.0234-2.0469 0.003907-2.0469 1.0234-0.51172 2.5586 1.0234 1.5352 1.5352 2.0469 0.51172-0.50781 2.5586-1.5352 3.5859v0.51172l1.5352 2.0469 2.5586 0.51172h2.0469l0.51172-3.5859h2.5586l1.0234-1.0234 0.51172-2.0469 1.0234-0.51172v-0.51172l-0.51172-3.5859h-2.0469l0.51562-0.50781h-2.0469l-2.5586-3.5859-3.5859-0.51172-1.0234-1.0234h-2.5586l-2.0469-1.5352-1.0234-1.5352-0.003906-2.0508c0-0.51172-0.51172-1.0234-1.0234-1.5352l-2.0469-1.0234h-4.0977l-1.5352-1.0234h-10.754l-1.0234 0.51172h-7.6797l-4.0977-0.51172-1.0234-1.0234 0.51172-1.0234 1.5352-0.51172v-1.5352l-0.51172-1.0234h-1.0234l-1.0234-0.51172h-8.7031s-0.51172 0-2.0469 2.0469l2.5586 0.51172 2.0469 1.0234 0.51172 4.6094-1.5352 1.5312-3.5859 0.51172-1.0234 1.0234h-4.0977l-2.0469-2.0469h-0.51172l-3.0703 1.5352-1.5352 2.5586-2.5586-1.5352-2.0508 0.51563h-1.0234l1.0234 1.5352v1.5352l-1.0234 1.0234-2.5586-1.0234v-2.0469l-1.0234-1.5352-2.0469 2.0469 1.5352 1.0234v1.0234l-0.51172 0.51172v1.0234l0.51172 0.51172v2.0469l-1.5352 0.51172-1.5352 1.0234-1.5352 0.51172-1.5352 1.5352zm-5.6289-16.383h4.0977l3.0703-1.5352 2.0469-1.5352-1.0234-1.0234-2.0469-0.51172-1.5352 1.5352-1.0234 0.51172h-3.0703l-0.51562 2.5586c-0.51562 0-0.51562 0 0 0zm-10.242 39.426v0l-2.0469 2.5586v1.0234l1.5352 1.5352h2.0469l0.51172-1.0234v-3.0703l-0.51172-1.0234zm-40.449 19.453c-1.0234 0.51172-1.5352 1.0234-1.0234 2.0469 0 0.51172 0.51172 1.0234 1.0234 1.5352 0.51172 0 0.51172 0.51172 1.0234 0.51172h1.0234s1.0234-1.0234 1.0234-1.5352c-1.0195-1.5352-1.5312-3.0703-3.0703-2.5586zm-4.0938-1.5352c-0.51172 0-1.0234 0-1.5352 0.51172 0 0-0.51172 0-0.51172 0.51172-0.51172 0.51172-1.5352 0.51172-1.5352 1.5352s1.0234 1.5352 2.0469 1.5352h0.51172c1.0234 0 1.5352 0 2.0469-0.51172 0.51172-0.51172 0.51172-1.0234 0.51172-1.5352 0-1.0234-0.51172-1.5352-1.5352-2.0469zm-52.738-80.383h1.5352s0.51172 0.51172 1.0234 1.0234h1.5352v-2.0469l-0.51172-2.0469-2.0469-2.0469-1.0234 2.0469-0.51172 0.50781h-0.51172l0.51172 2.5625c-0.51172 0-0.51172 0 0 0zm26.625 42.496-1.0234-1.0234 0.51172-1.0234 1.0234-0.51172-1.0234-1.5352h-1.5352l-1.0234 2.0469-0.51172 2.0469 1.0234 1.5352v3.0703l1.0234 1.5352h3.0703l0.51172-4.0977zm56.832 14.848h2.0469v-1.0234l1.0234-1.0234h4.0977v-2.0469l-2.5586-1.5352-0.51172-0.51172 1.0234-1.0234h4.6094v-2.5586h-5.1211l-0.51172 0.51172-1.5352-0.51172h-0.51172l-1.0234 1.5352-1.0234-1.0234h-1.0234l2.5586-2.5586v-4.0977h-2.0469l-2.0469-0.51172v-3.0703h-2.5586l-3.5859-3.0703-0.51172-1.5352-0.51172-2.0469-1.0234-1.0234h-1.5352l-1.0234-0.51172-6.1445-0.51172-0.51172-1.0234v-1.5352h-3.0703v1.0234h-1.5352l-2.5703-3.0859-1.5352-0.51172 0.51172-3.0703h-3.0703v1.0234h-2.5586l-1.0234-2.0469-3.0703-3.0703-7.6797-0.51172-3.0703-3.5859-2.5586-2.0469-2.5586-0.51172-4.1055-2.5625-2.0469-2.5586h-2.0469v1.0234l1.5352 3.5859 3.0703 2.5586 4.6094 2.5586 3.0703 3.0703-2.0469 1.5352v2.5586h-2.5586l-2.5586-1.0234-4.6094-4.0977-1.5352-3.5859h-2.0469l-1.5352-1.5352-1.5391-0.50781h-0.51172l-1.0234 0.51172v4.0977h-1.0234l-1.5352-1.0234-1.0273-1.0234h-3.5859-0.51172v1.0234h-3.0703l-1.5352-1.0234h-10.754c-0.51172 0-1.0234 0-1.5352 0.51172l-0.51172 0.51172v1.5352c0 0.51172-0.51172 0.51172-0.51172 0.51172h-1.5352c-1.0234 0-1.0234 1.0234-1.0234 1.0234v1.5352h-2.0469l-1.0234-0.51172-1.0234-1.0234c-0.51172-1.5352-2.0469-2.0469-2.0469-2.0469h-1.0234c-0.51172 0.51172-0.51172 1.0234-0.51172 1.0234v3.5859h-9.7266l-3.0703-0.51172-2.0469 1.0234h-1.5352v2.5586l-1.5352 2.0469h-3.5859l-0.011719 3.5859 1.5352 2.0469 2.0469 2.0469h3.0703l0.51172 2.5586 3.5859 0.51172h0.51172l1.0234-2.0469 1.5352-1.5352h3.0703l0.51172 1.5352 7.6797 1.0234v-1.5352l3.0703-1.0234h6.1445l1.5352 1.0234 2.0469 1.0234h1.5352l1.5352 1.0234v2.0469l2.5586 2.5586v3.0703h2.0469l1.0234-2.5586 1.0234 1.5352v3.5859l0.51172 1.5352 1.5352 1.0234h0.51172l1.0234-1.0234v-4.0977h0.51172l0.51172 2.5586 1.5352 0.51172 0.51172-2.0469c-0.51172-1.0234-0.51172-1.5352-0.51172-1.5352l0.51172-1.5352 1.5352-1.5352h1.5352l0.51172-1.0234h1.0234v2.5586l2.0469 1.0234h0.51172l1.5352-1.5352 1.0234-1.5352 0.51172-2.0469h1.0234l1.0234-1.5352 1.5352-1.0234 2.0469 0.51172 4.0938 4.0938-1.5352 3.0703v4.0977l3.0703 4.0977 2.0469 2.0469h2.5586l2.5586 2.5586 2.0469 1.5352h6.6562l2.0469-1.0234 3.0703 0.51172 1.5352 2.5586 2.0469 0.51172 1.0234 1.0234v2.0469l1.0234 2.0469h2.0469l1.0234-2.0469 2.6055-2.5508-1.0234-1.5352-0.51172-2.5586h-2.0469l-0.003906-1.0234 1.0234-1.0234h2.5586l0.51172-0.51172h3.0703l0.51172-1.0234h2.5586l2.0469 2.0469h0.51172v-0.51172-1.5352h2.5586l2.0469 0.51172 2.0469 1.0234zm226.3 102.4h-1.0234v-1.0234h-2.5586l-0.51172-0.51172h-1.0234l-1.0273-1.0234h-1.5352l-1.0234-1.0234-5.1211 0.51172v1.5352l-9.7266 0.51172-1.0234-0.51172h-4.6094l-4.6094-1.0234h-5.1211l-0.51172-1.0234h-5.6328v0.51172h-6.1445l-1.0234-0.51172-1.5352-0.51172-1.5352-1.0234-2.0469-0.51172-2.5586 0.51172-2.0469 0.51172-1.0234 0.51172-4.6094 0.51172-1.0234-0.51172h-7.6797l-2.0469 1.5352-1.5352 2.0469h-1.0234l-1.5352-0.51172-2.0469 0.51172-1.0234 1.0234-4.6094 6.1445-4.6133 1.0234-1.5352-2.0469-2.5625-3.0703-9.7266-8.7031-3.5859-3.5859-2.5586-3.5859-4.6094-5.1211-3.0703-2.0469h-0.51172l-2.0469 2.0469-0.51172 4.0977-0.51172 1.0234h-2.0469v-5.1211h-7.168l-2.5586-1.0234-3.0781-1.5352c-5.1211-1.0234-6.1445 0-6.1445 0.51172-1.5352 1.5352-5.6328 2.0469-5.6328 2.0469h-3.5859c-3.5859 1.0234-5.6328 3.5859-5.6328 4.0977l-6.1445 3.5859c-2.5586 1.5352-5.6328 2.0469-5.6328 2.0469l-7.1602 1.0234c-7.168 0-9.2148-1.0234-9.2148-1.0234-2.5586-0.51172-7.168-3.0703-7.168-3.0703-2.5586-1.0234-6.6562-0.51172-6.6562-0.51172-3.0703 0-5.1211 1.0234-5.6328 2.0469-0.51172 0.51172-0.51172 1.5352-0.51172 1.5352-0.51562 1.0234-2.5625 1.5352-2.5625 1.5352l-2.5586 0.51172-1.0234 2.0469-1.0234 4.0977 1.0234 8.1914 1.5352 8.1914 1.5352 4.6094v2.0469l-0.51172 8.7031-3.5859 7.1719-4.6094 4.0977v2.5586l-1.5352 2.0469-3.5859 4.0977c-0.51172 3.0703 1.0234 3.5859 1.0234 3.5859h4.0977l1.5352-2.0469 3.5859-2.5586c1.0234-1.0234 2.0469-1.5352 2.0469-1.5352h5.1211l2.0508-0.007813 14.848-0.51172 5.1211 0.51172 4.0977 1.5352 2.0469 2.0469 3.0703-1.0234 6.6562-3.0703c2.0469-1.5352 7.168-3.0703 7.168-3.0703 2.0469-1.0234 6.1445-1.5352 6.1445-1.5352l8.1914-0.51172h6.6562l6.1445 3.5859h3.5859l-0.51172-3.5859-1.5391-3.5859-1.5352-2.0469v-5.1211h1.0234l0.51172 1.5352 1.0234 3.5859 2.0469 3.5859 1.5352 1.0234h6.1445l1.0234-0.51172 0.51172 1.0234 1.0234 1.0234h0.51172v-1.0234l0.51172-0.51172 1.0234 0.51172c0 0.51172 0.51172 0.51172 0.51172 1.0234 0.51172 0.51172 0.51172 1.0234 1.0234 1.0234 1.0234 0 1.5352-0.51172 1.5352-0.51172l0.51172-4.0977c1.5352-2.5586 4.0977-2.0469 4.6094-2.0469 2.5586-0.51172 5.6328 0.51172 5.6328 0.51172 3.5859 1.0234 6.1445 1.0234 6.1445 1.0234 2.0469 0 4.0977-1.5352 4.0977-1.5352 0.51172-1.0234 1.0234-1.5352 1.0234-2.0469l14.336-0.51172c3.5859 0 6.1445-2.0469 6.1445-2.5586l4.0977-2.5586 4.0977 0.51172 3.0703-2.0469 1.5352-1.5352v-2.0469l-2.0469-0.51172v-1.543l2.5586-2.0469 2.5586 1.5352 4.6094 3.5859h4.6094l2.0469-1.0234 7.6797-6.6562 2.5586-0.51172h4.6094v-1.5352h3.0703l2.0469-1.5352 0.51172-4.0977 2.5586-2.5586h8.1914l0.51172 1.0234h6.6562l4.0977-3.5859v-1.0234h3.5859l1.5391-4.6133c0.51172 0.51172 0.51172 0 0 0zm-366.59-152.06-0.51172-0.51172v-2.0469h-0.51172l-3.5859 2.5586v1.0234l1.0234 1.0234h2.5586l1.543-1.0234zm76.801 42.496v-5.1211l-0.51172-0.51172h-1.5352l-1.5352 1.5352h-1.0234l-1.0234 1.0234v2.0469h-1.5352l-1.0273 0.51562h-1.5352v3.0703h-2.0469v3.0703h1.0234l1.0234 0.51172v0.51172l-1.0234 0.51172v1.5352l1.5352 1.0234h3.0703l1.5352-1.5352v-1.5352l0.51172-0.51172v-5.1211l0.51172-0.51172h2.5586l2.0469 1.0234v-2.0469zm-86.527-19.969h-1.5352l-2.5586 3.0703-1.5352 2.5586h-1.0234l-0.51172 1.0234v1.5352h6.1445l0.51172-1.0234 0.51172-0.51172-0.003906-6.6523c0.51172 0.51172 0 0 0 0zm16.383-11.266h-1.0234v-1.0234h-2.0469l-2.0469 1.0234v2.0469l1.5352 1.5352 2.0469 0.51172 2.0469-1.0234-0.51172-3.0703c0.51172 0.51562 0 0 0 0z" fill="#025195"/>
</svg>
