<?xml version="1.0" encoding="UTF-8"?>
<svg width="512pt" height="512pt" version="1.1" viewBox="0 0 512 512" xmlns="http://www.w3.org/2000/svg">
 <path d="m468.22 195.03-54.203 70.328-10.613-12.457 29.035-39.238 0.68359-1.0312-1.9766-0.70312-0.058594 0.18359-10.379-12.438 5.207-17.375-16.66-0.59375 3.1016-17.473 4.418-8.7266-6.957-14.93-17.898-6.4688-4.4219-17.574-14.598-1.1562-21.086 0.085938-43.277-18.965-65.145-19.168-5.8945-19.371-11.648-3.6328-0.074218-0.33594-4.5742 2.2227-0.66797-0.5625-44.238-36.953-74.426 20.926-19.668 5.4531-0.94922 60.246-2.3438-0.16406-18.852 11.297-16.301 9.7812-11.367 19.344 15.125 20.625-6.6602 26.73-1.0352 29.047-3.1406 23.449 21.617 21.309 9.0859 1.2461 24.348 15.902 8.418 7.457 5.1172 11.648 18.965 18.82 25.773 16.332 2.3477 8.8672-0.23828 25.719 1.8398 12.078 1.0039 5.8555 9.8672 17.105-7.0977 7.9766-0.10156 22.434 3.0469 9.5742 4.7891 17.035 25.562 10.578 7.4688 16.375 80.562 0.43359 82.402-0.32812 60.789-0.050781-0.027344-0.28125 0.28125 0.019531 1.5312-26.055-10.863-52.082 13.496-60.738 15.66-74.891 37.285-83.453z" fill="#025195"/>
</svg>
