<?xml version="1.0" encoding="UTF-8"?>
<svg width="512pt" height="512pt" version="1.1" viewBox="0 0 512 512" xmlns="http://www.w3.org/2000/svg">
 <path d="m228.25 54.023 4.3828 12.871 4.6133-4.5195 14.43 3.6055-1.2969 6 12.902 6.0938 9.2695-1.6797 17.914 9.9727 17.012 3.6172 6.7344 3.7734 12.109-3.7852 13.453 8.2305 9.8047 3.7578-0.44141 94.555-0.625 137.19 11.453 0.67188 11.453 6.3359 8.4297 10.047 11.023 14.934 11.055-13.438 11.453-8.1406 6.9805 11.652 8.6602 8.9492 11.789 9.5742 8.9805 15.82 15.07 24.801 22.953 12.078 2.0156 14.141-5.9258 11.637-8-7.6641-12.02-6.0469-5.4375-19.363-17.652-17.012-8.2305-21.117-11.773-0.70312-19.348 0.45703-14.445-6.1094-25.195-23.578-11.316-4.3828-20.418-8.582-16.246 1.5273-22.371-11.836-13.039-10.887-13.117 3.9688 1.0547 16.43-6.582 0.94531-14.004 3.5742-11.18 6.7188-13.668 3.375v-13.82l7.9727-22.172 12.934-5.832-2.4727-6.2305-16.035 11.348-9.8477 14.477-19.148 14.051 7.0391 12.398-13.699 14.781-14.492 7.4688-13.332 4.8398-4.7812 9.4531-21.395 8-5.9844 9.6953-16.598 6.4883-8.2305-3.5586-13.086 3.5273-14.539 4.457-12.309 4.7188-23.348 0.51953-0.97656-4.1836 16.477-6.4883 13.973-3.6172 16.203-8.7969 15.973 1.0391 8.1094-7.7578 19.805-9.8047 3.6172-3.9414 10.508-6.1992 5.3125-16.75 8.5195-12.309-14.934 4.3203-3.0391-4.6562-8.0781 6.9492-5.3008-13.102-4.918 7.4375-1.9258-12.23-13.742 6.3984-7.1914-1.7109 2.2148-13.668 4.0781-7.8047-5.4062-9.8633-15.898 0.59375-6.7188-13.148-6.168-7.5273 3.5273-12.859-5.6797-12.078 7.9414-11.926 12.293-10.414 6.9922-10.871 8.9648 0.55078 6.2773 5.5898 11.285-9.1914 7.1484 3.8477 9.668-5.4805 0.51953-11.254-4.7812-5.6055 9.6953-7.4531-6.3203-1.1602-12.047 2.5977-4.4141 4.457-6.7344-7.2539-15.086-1.1758-13.207-9.8359-1.4062-10.703-8.2773-17.5 16.676-5.7891 24.828-5.6641 7.9258 2.0938-4.457 11.711 20.906 4.1992-4.2773-16.949-9.4219-12.262-3.4648-13.988-6.0312-12.902-10.324-11.375 8.8281-11.469 16.141 3.6172 14.262-8.4922 5.207-11.805 11.879-9.9727 9.1172-0.97656 18.797-8 7.5273 3.3281 15.742-11.574zm-202.38 140.35 4.7188 6.5508 7.1484-0.16797 6.2305 8.8281 9.2227 6.3828-1.6484 2.2305-9.4219 2.2891-6.2148-7.5898-2.5039-5.4688-9.4844-1.8164-1.7266-2.8711zm37.84 108.63-7.9258 1.5117-6.168-6.3516-4.9648-8.125 12.156-0.56641 8.2773 4.582zm135.51 94.035-13.574 6.8555-5.4375-6.7812-0.25781-10.887 12.277-6.3984 6.9648-2.5508 7.832 2.625 4.2461 7.7422z" fill="#025195"/>
</svg>
