<?xml version="1.0" encoding="UTF-8"?>
<svg width="512pt" height="512pt" version="1.1" viewBox="0 0 512 512" xmlns="http://www.w3.org/2000/svg">
 <g fill="#025195">
  <path d="m397.07 229.13h13.434v13.434h-13.434z"/>
  <path d="m370.2 188.82v13.434h-6.7188v-6.7188l-33.586-6.7188v-6.7188l-20.152 6.7188-6.7188 6.7188h-6.7188v-6.7188h-13.434v-13.434h-6.7188v13.434l-13.434 6.7188h-26.871l-13.434 20.152v13.434h-6.7188l-20.152 13.434h-53.738l-12.113 8.0742-14.754 5.3672v6.7188l-13.434 6.7188v6.7188h13.434l13.434 6.7188 6.7188-6.7188h6.7188v6.7188l20.152 6.7188v20.152l13.434 6.7188h6.7188v13.434l13.434-6.7188v-13.434h6.7188v6.7188h6.7188l20.152-20.152v-6.7188l20.152-6.7188v-6.7188h-13.434v-13.434h13.434v6.7188h6.7188v-11.754l20.152-15.113v-20.152h-20.152v-6.7188h33.586v26.871l26.871-6.7188v-6.7188l20.152-13.434h6.7188v13.434h13.434l40.305-13.434v-33.586z"/>
 </g>
</svg>
