<?xml version="1.0" encoding="UTF-8"?>
<svg width="512pt" height="512pt" version="1.1" viewBox="0 0 512 512" xmlns="http://www.w3.org/2000/svg">
 <path d="m451.42 25.227-95.438-0.019531-126.35-1.7344-106.06-2.1406-2.2188 65.953-2.9922 2.6016-4.9219 12.312-8.9258-3.6328-12.512-6.3945-13.973-0.63281-5.0547 9.8828 5.4141 11.512-0.85547 17.633 0.63281 15.969 2.543 16.219-4.9023 15.898 1.0312 7.4102 3.1836 11.281 4.9258 14.629 8.082 15.848 12.188 16.332-21.441 15.965-7.168 37.344-14.309 18.234 2.8828 14.66 1.8672 12.441 11.703 11.906-8.4258 16.09-9.2383-0.54297-7.1641 15.488 104 44.422 159.77 61.359 140.4-0.86719z" fill="#025195"/>
</svg>
