<?xml version="1.0" encoding="UTF-8"?>
<svg width="512pt" height="512pt" version="1.1" viewBox="0 0 512 512" xmlns="http://www.w3.org/2000/svg">
 <path d="m145.92 502.79-0.51172 1.5352 0.51172 0.51172h3.5859l1.5352-1.5352-0.51172-0.51172zm-11.777-6.1445h-2.0469l-1.0234 1.5352v1.0234l0.51172 0.51172h1.5352l1.5352-1.5352v-1.0234zm43.52 1.0234h-1.5352l-0.51172 0.51172 1.5352 1.5352h1.0234l0.51172-0.51172v-1.0234zm-5.1211 0h-1.0234l-0.51172 0.51172v1.0234l0.51172 0.51172h1.0234l0.51172-0.51172v-1.0234zm-44.543 2.0469-1.0234 3.0703h-1.5352l-2.5586 3.0703-4.6094 1.0234-2.0469 2.5586v2.0469l1.5352 0.51172 1.0234-1.0234 5.1211-1.0234 5.1211-5.1211h2.0469l0.51172-2.5586-2.5586-2.5586zm53.246-2.0469h-1.0234l-0.51172 0.51172v1.0234l0.51172 0.51172h1.0234l0.51172-0.51172zm-10.238-284.67 0.51172-1.5352-0.51172-0.51172h-2.0469l-0.51172 0.51172 1.5352 1.5352zm128-142.85h1.5352l1.5352-1.5352-0.51172-0.51172h-2.5586l-0.51172 0.51172zm-200.19 309.25v1.0234h1.0234l0.51172-0.51172-0.51172-0.51172zm329.21-296.96 5.1211-10.238v-3.0703l-2.5586-3.5859h-7.168l-1.0234 1.0234-14.336-1.0234-1.0234-1.0234-10.754 1.0234-1.0234-1.0234h-2.5586l-1.0234-1.0234-5.1211-1.0234-2.0469-2.0469h-1.5352l-1.0234-1.0234-3.5859-1.0234-2.5586-2.5586 1.0234-1.0234v-3.0703l-2.0469-2.0469v-3.0703l-2.0469-3.0703v-1.0234l-5.6328-7.168v-1.0234l-4.0977-4.6094h-1.0234l-4.0977-4.6094v-1.0234l-4.6094-6.1445-2.0469-4.0977-6.1445-6.6562h-2.0469l-6.6562-6.1445-4.6094-2.0469h-6.1445l-1.5352 1.0234-6.1445 6.6563-3.0703 9.2148-2.5586 6.1445-1.0234 1.5352-2.5586 1.0234-4.6094 7.6797-1.5352 4.0977v5.1211l-1.0234 1.0234 0.51172 17.406 1.0234 1.0234 0.51172 8.1914 1.0234 1.0234v2.0469l-1.5352 4.0977-1.5352 5.1211-4.0977 6.1445 1.0234 5.1211-4.0977 2.5586-4.6094 5.6328v1.0234l-1.5352 1.0234v4.0977l-2.5586 3.0703-0.51172 4.0977-2.0469 1.5352-4.6094 5.6328v5.1211l-1.0234 1.0234v2.0469l-1.5352 4.0977-3.5859 4.0977v2.0469l-3.5859 5.1211v2.0469l1.0234 1.0234v4.0977l1.0234 1.0234-1.0234 1.0234v2.0469l1.0234 1.0234-1.0234 1.0234v2.0469l3.5859 3.0703v3.0703l-1.5352 3.0703-2.5586 3.0703-0.51172 3.0703-2.0469 2.5586-6.1445 3.0703h-2.0469l-1.0234 1.0234h-3.5859l-4.6094-6.1445h-2.0469l-3.5859 2.0469-1.0234 1.0234h-2.5586l-1.5352 1.0234-4.6094 7.6797v4.0977l6.6562 5.1211v5.1211l-1.5352 4.0977-2.0469 2.5586-3.5859 2.0469-4.6094 3.0703-8.7031 1.0234-2.0469-2.0469-1.5352 0.51172-0.51172 2.5586-2.0469-1.0234h-3.5859l-1.0234-1.0234h-5.6328l-1.0234-1.0234h-8.7031l-2.0469-2.0469h-1.0234l-0.51172 3.0703h-3.5859l-8.7031 6.1445h-3.5859l-3.5859-3.0703-3.5859-1.0234v6.6562l-2.0469 2.5586h-3.5859l-7.168 4.0977h-4.6094l-2.0469-3.0703h-2.5586l-10.242 6.1406h-4.6094l-1.0234-1.0234-3.5859-1.0234-2.5586-2.0469h-5.1211l-2.5586 2.0469h-2.0469l-1.0234-1.0234h-18.434l-4.0977 4.0977h-1.0234l-8.1914 9.7266 2.0469 0.51172 3.5859-4.0977h1.0234l2.5586-3.0703 2.5586-1.0234 1.5352-2.0469 1.5352-1.0234h19.457l1.0234 1.0234h2.5586l3.5859 2.0469h6.1445l1.0234 1.0234 1.5352 0.51172-0.51172 0.51172h-3.5859l-3.0703 2.5586v2.0469l2.5586 3.5859h1.0234l1.5352-3.0703 5.1211 1.0234 1.5352-2.0469h3.5859l3.0703 1.5352-1.5352 4.0977v2.0469l1.0234 1.0234v6.1445l-3.0703 3.5859h-1.0234l-0.51172-3.5859-3.0703-3.5859h-4.6094l-0.51172 1.5352 1.0234 1.0234-1.5352 0.51172-2.0469 2.5586v5.1211l2.5586 2.5586 3.5859-1.0234 2.5586 3.5859 1.0234 3.0703-1.0234 1.0234 1.0234 2.0469-3.5859 4.0977v2.0469l-1.5352 2.0469v2.0469l1.0234 1.0234-0.51172 1.5352h-1.5352l-3.0703-3.5859-3.0703-5.1211 0.51172-4.0977-2.0469-2.0469v-2.0469l1.0234-1.0234v-4.0977l1.5352-2.0469v-3.0703l-4.0977-4.6094-1.5352 1.0234h-2.5586l-1.0234-1.0234h-5.1211l-1.5352-1.0234-2.5586 2.0469-4.0977 1.0234-1.0234 1.0234h-2.0469l-1.0234-1.0234h-3.5859l-3.5859-3.0703-2.5586-1.0234-2.0469-2.0469h-1.5352l-1.0234-1.0234h-4.6094l-3.5859 2.0469-0.51172 2.5586 1.5352 2.0469 1.0234 3.0703 3.0703 3.5859 2.5586 1.0234 2.0469 2.0469h2.5586l1.0234 1.0234h2.5586l3.5859 5.1211 1.5352 0.51172v2.0469l1.0234 1.0234v7.168l4.0977 4.6094 2.5586 1.0234 1.5352 1.5352-1.0234 2.0469 1.5352 1.5352 2.5586-2.0469h5.6328l7.168 8.7031v4.0977l2.0469 2.0469 1.0234 6.1445-2.5586 4.0977-0.51172 6.1445-3.0703 2.5586h-2.5586l-1.0234 1.5352 1.0234 4.0977-1.0234 2.5586-2.5586-1.0234-1.0234 1.5352v5.1211l2.0469 3.0703v6.1445l-1.5352 3.0703v2.0469l-1.5352 2.0469-1.5352 4.0977v4.0977l-3.5859 5.1211v3.0703l-2.5586 6.1445-2.0469 2.5586h-2.5586l-0.51172 1.5352 6.6562 4.6094h2.5586l0.51172 0.51172-1.0234 1.0234 4.0977 0.51172 2.5586 3.5859v3.0703l3.5859 3.0703-2.5586 6.1445 0.51172 3.5859 2.5586 2.0469 5.1211 1.5352-0.51172 2.5586-2.5586-1.0234-1.0234 1.5352v2.0469l1.0234 1.0234v5.1211l1.5352 1.5352 3.0703 0.51172-1.5352 2.0469 1.0234 6.1445 1.5352 1.5352h1.5352l1.0234-1.0234 1.5352 0.51172v1.0234l-4.0977 4.0977-1.0234 2.0469v4.0977l1.0234 2.0469 3.5859 4.0977v6.1445l2.0469 2.0469v4.0977l-1.5352 3.0703 1.0234 4.0977 3.0703 3.5859h2.5586l2.5586 3.0703 2.5586 1.0234 1.5352 1.5352 1.0234 6.1445 2.5586 2.5586h5.1211l1.5352 1.0234 1.5352-2.0469h1.0234l1.5352 3.5859 2.0469 2.5586h4.6094l7.168 4.0977h9.7266l1.0234-1.0234 3.5859 1.0234 3.5859-3.0703 2.5586-1.0234 3.5859 5.1211 1.5352-1.0234 1.0234 1.0234h2.0469l2.0469-1.5352-1.0234-2.0469 1.0234-1.5352 3.5859-2.0469 2.0469-2.5586v-3.0703l3.5859-4.0977 0.51172-2.5586 3.5859-1.0234 1.5352-1.5352 0.51172-3.0703-2.0469-1.0234 2.0469-1.5352h1.5352l6.6562-6.6562-2.5586-2.0469 1.0234-2.5586 2.5586 3.0703h2.0469l4.6094-5.6328v-3.0703l2.0469-0.51172 3.0703-4.6094v-5.1211l3.0703-3.5859 1.5352-0.51172v-1.0234l2.5586-3.0703v-4.0977l1.5352-3.0703v-5.1211l-1.0234-1.0234v-3.0703l1.0234-1.0234v-2.0469l-1.0234-1.0234v-6.1445l1.0234-1.0234-0.51172-12.289-1.0234-1.0234v-4.0977l-1.5352-1.5352-2.5586-2.0469-3.5859 1.0234-2.0469-2.5586 5.6328-0.51172 1.0234 1.0234h2.0469l2.0469-3.5859v-4.0977l-1.0234-2.0469 1.0234-1.0234-0.51172-9.2148-2.0469-4.0977 1.0234-2.0469v-6.1445l-2.0469-2.0469v-3.0703l2.5586-5.1172v-5.1211l1.5352-4.0977 0.51172-13.312-3.5859-3.0703 1.5352-1.5352 3.5859-1.0234 5.6328-6.6562 0.51172-2.0469v-4.0977l1.0234-1.0234v-4.0977l2.0469-1.5352h2.0469l2.0469-3.5859v-2.0469l-3.0703-1.5352-2.5586-2.5586v-1.0234l1.0234-2.0469-1.0234-1.0234 1.5352-1.5352 3.5859-1.0234 0.51172-1.0234h2.5586l1.5352-1.0234 1.5352-3.0703h1.0234l2.0469 2.0469h1.5352l1.0234 1.0234h3.5859l3.5859-3.5859 1.5352-5.1211 1.0234-2.0469 6.1445-7.6797h1.0234l1.5352-2.0469h3.5859l1.0234 1.0234h1.5352l1.5352-1.5352v-2.0469l2.0469-1.5352 4.6094-5.6328v-3.0703l1.5352-0.51172 5.1211-6.1445h1.0234l1.5352-3.0703 2.0469 1.0234 2.5586-3.0703h3.5859l1.5352-1.0234 3.0703-3.5859v-1.0234l4.6094-5.6328h1.0234l0.51172-2.5586 4.0977-4.0977v-1.0234l6.1445-7.168v-1.0234l9.2148-6.6562h4.6094l1.0234-1.0234h1.5352l6.1445-8.7031-0.51172-8.1914 1.0234-1.5352h2.0469l1.5352-2.0469h1.0234l4.0977-5.1211 3.5859-2.0469 1.0234 1.0234h2.5586l0.51172-1.5352 2.0469-1.5352h4.6094l1.0234-1.0234h2.5586l2.5586-2.0469 3.5859-1.0234 2.0469-2.5586 1.5352-4.0977v-3.0703l2.5586-6.1445 1.0234-1.0234 0.51172-5.1211 1.0234-1.0234v-3.0703l3.5859-5.1211v-2.0469l1.5352-2.0469v-2.0469l1.5352-2.0469v-3.0703l-1.0234-1.0234 1.0234-1.0234v-2.0469l-1.0234-1.0234v-6.1445l1.5352-4.0977 2.0469-2.5586h1.0234l2.0469-2.5586v-1.0234l2.5586-2.0469 3.0703-8.1914v-5.1211l1.0234-1.0234zm-301.05 226.81 0.51172-1.5352-0.51172-0.51172h-1.0234l-0.51172 0.51172v1.0234l0.51172 0.51172zm-13.312 24.066 0.51172-1.5352-0.51172-0.51172h-2.0469l-0.51172 0.51172v1.0234l0.51172 0.51172zm123.39-135.68 1.0234-1.5352-0.51172-0.51172h-1.5352l-0.51172 0.51172v1.0234l0.51172 0.51172zm-130.05 174.59 0.51172-0.51172v-1.0234l-0.51172-0.51172h-1.0234l-0.51172 0.51172v1.0234l0.51172 0.51172zm95.746 125.44h-1.0234l-0.51172 0.51172v1.0234l0.51172 0.51172h1.0234l0.51172-0.51172zm-98.816-135.68 1.5352-1.5352v-2.0469l-0.51172-0.51172h-1.0234l-1.5352 1.5352v2.0469l0.51172 0.51172zm80.895 135.68h-1.0234l-0.51172 0.51172v1.0234l0.51172 0.51172h1.0234l0.51172-0.51172v-1.0234zm8.7031-4.0977-1.5352 1.5352 0.51172 0.51172h1.0234l1.5352-1.5352-0.51172-0.51172zm15.359-2.0469-0.51172 0.51172 0.51172 0.51172h1.0234l0.51172-0.51172-0.51172-0.51172z" fill="#025195"/>
</svg>
