<?xml version="1.0" encoding="UTF-8"?>
<svg width="512pt" height="512pt" version="1.1" viewBox="0 0 512 512" xmlns="http://www.w3.org/2000/svg">
 <path d="m414.26 326.59-1.7227-1.1328-5.2227-3.4844-4.8242-9.1328-5.1289-1.6719-6.418 13.246-10.766 2.3477-26.672-3.6719-1.1719 6.5039-15.492-2.2344-8.6211 9.2305-8.4727-17.078-5.8477-9.5469-9.5625-1.6016-2.8594-4.8008-2.9922-17.238-8.2773-8.2461-5.3008-20.883-5.5195-9.0781-5.6055-1.8477-4.7812 9.2734-9.2266 7.7891-8.2188-6.6094-0.31641-16.938 5.4219-4.2148-3.6953-17.039 4.6094-17.371 5.1484-14.621-13.73-0.75781-11.637-9.7656-12.301-20.688-7.3711-10.398-10.289-6.4961-8.1211-10.781 0.30469-11.965-11.348-17.926-1.6992-69.988-43.152-1.3242-3.0117 84.906-2.168 92.34 3.832 10.238-0.82422 11.742 10.434 13.098 7.582 5.6133 2.1562 10.094-4.9727 8.457-6.8438 16.781-7.418 21.074-10.602 12.652-7.1953 14.695-0.52734 10.535 8.6836 4.7773 3.5117 8.7422-4.8516 18.535-5.1523 118.03 146.62 3.6133 146.16-2.25z" fill="#025195"/>
</svg>
