<?xml version="1.0" encoding="UTF-8"?>
<svg width="512pt" height="512pt" version="1.1" viewBox="0 0 512 512" xmlns="http://www.w3.org/2000/svg">
 <path d="m466.62 120.29-0.035157 0.035156-53.73 29.785-37.164 34.07-35.875 35.445 0.27344 11.789-14.418 4.9922 2.1289 44.992-1.7539-0.011719-13.531 9.3125-11.699 8.0625-7.5781 14.969 12.254 14.676-3.7109 20.254 0.59375 21.723-1.2383 17.641 17.129 14.883 6.8398 0.5 18.91 10.719 6.6328 5.1641 4.3672 8.4492 15.035 13.148 19.996 10.973 2.168 6.5039 1.0312 19.199 1.9414 8.9258-76.246 1.5039-84.848 2.5-78.984 1.6953-63.535-0.48438 1.6445-74.648-5.9883-76.699-9.7812-6.3789-5.3945-12.461 3.1914-10.82 12.688-8.793 1.1289-11.641 0.19922-14.594-3.3242-12.23-4.4766-13.082-2.4531-16.363-0.40625-18.316-1.7969-4.4336-1.8789-23.625-0.035156-10.84-0.91797-9.6523-2.4531-16.363-6.3125-16.672-6.0078-14.879-0.64062-14.668-0.38672-15.824 2.0312-10.301 0.51562-9.3984-4.7656-11.75-0.61328-7.9727 110.26 1.0352 0.027344-31.121 17.93-0.51562 9.7461 44.41 16.785 13.547 37.512 4.3828 55.113 11.48 53.141 23.152 43.164-12.523 67.566 17.141z" fill="#025195"/>
</svg>
