<?xml version="1.0" encoding="UTF-8"?>
<svg width="512pt" height="512pt" version="1.1" viewBox="0 0 512 512" xmlns="http://www.w3.org/2000/svg">
 <path d="m493.22 395.63 1.8164-9.1914-13.594-13.395-7.6992 2.7344-10.355-21.789 2.0039-13.703-6.4023-21.656-7.3789-2.3359-19.691-19.055-8.1562 0.007812-14.699-12.184-10.641-13.203 3.9805-16.094 6.0742-13.445 3.3594-16.871-14.059-14.043-13.18 6.3633-8.1914-3.5117-1.6797-15.109-6.4727-17.023-6.6211-3.9141-16.594-11.668-13.832-14.996-12.117-18.316-6.918-26.945 5.457-22.695-9.6602-7.3047-13.57-14.391-75.504 3.2422-79.531 1.0703-61.949-0.26953-62.055-1.0742 1.2227 7.5039 11.363 14.582 10.555 11.801 8.7305 19.516 16.375 12.34 9.0742-0.066406 1.8477 13.156-10.07 16.668 5.2305 8.6797 8.4609 19.148 18.461 8.7539-1.5859 97.055-1.3398 96.863 0.35938 0.007812-1.1484 41.625 88.945 1.4688 80.922-0.63672 77.227-1.7227 83.52 2.6602 6.5742 10.949-7.8711 10.086-7.8359 10.125-4.1758 9.1758 48.016-2.0195 4.6875-22.352 3.8672-13.141 1.4922-8.8359 15.914-10.336 11.184-8.1289z" fill="#025195"/>
</svg>
