<?xml version="1.0" encoding="UTF-8"?>
<svg id="Layer_2" data-name="Layer 2" xmlns="http://www.w3.org/2000/svg" version="1.1" viewBox="0 0 704.8 698">
  <defs>
    <style>
      .cls-1 {
        fill: #000;
      }

      .cls-1, .cls-2 {
        stroke-width: 0px;
      }

      .cls-2 {
        display: none;
        fill: #fff;
      }
    </style>
  </defs>
  <g id="Layer_1-2" data-name="Layer 1-2">
    <g>
      <path class="cls-2" d="M704.8,698H0V0h704.8v698ZM404.9,556.2c-.1-2.7-.3-5.9-.5-9.1-.2-2.4-.5-4.7-.8-7.1,2,0,4.1,0,6.1,0,1.9,0,4.4.8,5.5-.1,1-.9,1.4-4,.7-5.3-2.5-4.3-4.6-8.5-1.3-13,2.7-3.7,5.4-8.1,9.1-10.3,4.7-2.8,2.3-5.1.8-7.5-2-3.3-4.1-2.8-7.1-.3-6.9,5.9-14.3,11.2-21.4,16.8-1.1.9-2,2.3-2.4,3.7-1.9,6.3-3.4,12.8-5.6,19-2.1,6.1,0,9.7,6.8,10.4,2.8.3,5.6,1.5,10,2.8h0ZM372.1,605.2c9.1-6.3,8.8-15.6,10.9-23.8.4-1.4-1.8-3.8-3.3-5.2-2.7-2.5-4.1-4.7-2-8.6,1.3-2.4,1.6-5.9,1-8.6-.6-2.5-2.5-7.8-6.1-4.1-5.8,5.9-10.7,12.9-14.8,20.1-1.3,2.3,0,8.5,2.1,9.9,5.7,3.8,9.1,8,9.4,15,0,1.7,1.7,3.3,2.8,5.3h0ZM288.6,691.8c8,.8,14.7-.9,18.9-8.7.7-1.3,3.2-3,4.4-2.7,9.7,2.8,8.8-5.2,11.1-10-8.8-6-13.2-5.9-21.7-.8-3.7,2.3-7.8,4.4-12,5.3-5.1,1-14.4,9.1-14.7,14.2,0,.4.9.8,1.4,1.2,7.9-6.6,8.4-6.5,12.6,1.3h0ZM392.3,239.9c6.1.1,8.3-1.9,11.4-6.8,2.2-3.5,5.2-7.8,8.7-8.8,6.8-2,10.9-8.7,7.5-14.9-2.8-5-7.4-4.1-11.4-3.3-3.8.8-3.7,4-3.2,8,.6,5.1.7,11.8-6.2,13.9-6.1,1.9-6.8,6.2-6.8,11.9h0ZM391.9,98.6c-4.5.4-9.1.7-13.7,1.2-.8,0-1.9.7-2.1,1.3-1.5,4.5-4.2,9.4-3.6,13.7.5,3.6,4.6,8,8.1,9.3,3.9,1.5,9.3-5.1,9.4-10.7,0-3.4-1-6.8-1.5-10.5,1.1-1.4,2.6-3.2,3.5-4.2h0ZM382.6,383.4c0,.2-.1.5-.1.7-2.2,0-4.7-.6-6.7.2-2,.7-5.2,3.3-4.9,4.1.9,2.9,2.8,7.3,4.9,7.6,5.4.8,11.1,0,16.5-.9,1.6-.3,3.6-2.7,4.1-4.5.4-1.2-1.1-4.1-2.3-4.5-3.6-1.4-7.6-1.9-11.4-2.7h0ZM335.2,26.7c1.3-1.8,3.1-4.4,4.9-7.1-4.2-2.4-7.7-4.5-11.3-6.4-1.4-.7-3.6-1.7-4.4-1.1-1.4,1.1-2.5,3.1-2.6,4.9-.1,1.3,1.2,3.3,2.4,4,3,1.9,6.4,3.3,11,5.7ZM424.4,325c1.2.1,2.5.2,3.8.3,1.3-2.8,3.2-5.6,3.5-8.5.1-1.4-2.9-4.2-4.7-4.4-1.6-.2-5.1,2.3-5.1,3.6,0,3,1.6,6,2.5,9h0ZM346,629.3c1.2-.4,2.4-.9,3.6-1.3,2.5-2.3,5.1-4.6,7.6-6.9-.9-.8-2.2-2.4-2.6-2.2-3.4,1.6-6.8,3.4-9.8,5.7-.5.4.7,3.2,1.1,4.8h0Z"/>
      <path class="cls-1" d="M404.9,556.2c-4.4-1.3-7.2-2.5-10-2.8-6.7-.7-8.9-4.2-6.8-10.4,2.2-6.2,3.6-12.7,5.6-19,.4-1.4,1.3-2.8,2.4-3.7,7.1-5.7,14.5-11,21.4-16.8,3-2.5,5.1-3,7.1.3,1.5,2.5,3.9,4.7-.8,7.5-3.8,2.2-6.5,6.6-9.1,10.3-3.3,4.6-1.1,8.8,1.3,13,.8,1.3.4,4.4-.7,5.3-1.1.9-3.6.2-5.5.1-2,0-4.1,0-6.1,0,.3,2.4.6,4.7.8,7.1.2,3.2.4,6.4.5,9.1h0Z"/>
      <path class="cls-1" d="M372.1,605.2c-1.1-2-2.7-3.7-2.8-5.3-.3-6.9-3.7-11.2-9.4-15-2.1-1.4-3.4-7.6-2.1-9.9,4.1-7.2,9-14.2,14.8-20.1,3.6-3.6,5.5,1.6,6.1,4.1.6,2.7.3,6.2-1,8.6-2.1,3.9-.7,6.1,2,8.6,1.5,1.4,3.7,3.8,3.3,5.2-2.1,8.2-1.7,17.5-10.9,23.8h0Z"/>
      <path class="cls-1" d="M288.6,691.8c-4.2-7.8-4.7-7.9-12.6-1.3-.5-.4-1.5-.8-1.4-1.2.3-5.1,9.6-13.2,14.7-14.2,4.2-.9,8.3-3,12-5.3,8.5-5.2,12.9-5.3,21.7.8-2.4,4.8-1.4,12.8-11.1,10-1.2-.3-3.7,1.3-4.4,2.7-4.1,7.8-10.9,9.4-18.9,8.7h0Z"/>
      <path class="cls-1" d="M392.3,239.9c0-5.7.7-10,6.8-11.9,6.9-2.1,6.8-8.8,6.2-13.9-.5-4-.6-7.1,3.2-8,3.9-.9,8.6-1.7,11.4,3.3,3.4,6.1-.7,12.8-7.5,14.9-3.5,1.1-6.5,5.3-8.7,8.8-3.1,4.9-5.3,6.9-11.4,6.8h0Z"/>
      <path class="cls-1" d="M391.9,98.6c-.9,1.1-2.4,2.9-3.5,4.2.6,3.7,1.6,7.1,1.5,10.5,0,5.6-5.5,12.2-9.4,10.7-3.5-1.3-7.5-5.8-8.1-9.3-.6-4.3,2.1-9.1,3.6-13.7.2-.6,1.3-1.2,2.1-1.3,4.6-.5,9.2-.8,13.7-1.2h0Z"/>
      <path class="cls-1" d="M382.6,383.4c3.8.8,7.8,1.4,11.4,2.7,1.3.5,2.7,3.3,2.3,4.5-.5,1.8-2.5,4.2-4.1,4.5-5.5.9-11.2,1.7-16.5.9-2-.3-4-4.7-4.9-7.6-.3-.8,3-3.4,4.9-4.1,2-.7,4.4-.2,6.7-.2,0-.2.1-.5.1-.7h0Z"/>
      <path class="cls-1" d="M335.2,26.7c-4.7-2.4-8-3.8-11-5.7-1.2-.8-2.5-2.7-2.4-4,.1-1.7,1.2-3.8,2.6-4.9.8-.6,3,.4,4.4,1.1,3.6,1.9,7.1,4,11.3,6.4-1.8,2.7-3.6,5.3-4.9,7.1Z"/>
      <path class="cls-1" d="M424.4,325c-.9-3-2.5-6-2.5-9,0-1.3,3.4-3.8,5.1-3.6,1.8.2,4.8,3,4.7,4.4-.2,2.9-2.2,5.7-3.5,8.5-1.2-.1-2.5-.2-3.8-.3h0Z"/>
      <path class="cls-1" d="M346,629.3c-.4-1.7-1.6-4.4-1.1-4.8,3-2.2,6.4-4,9.8-5.7.4-.2,1.7,1.4,2.6,2.2-2.5,2.3-5.1,4.6-7.6,6.9-1.2.4-2.4.9-3.6,1.3h0Z"/>
    </g>
  </g>
</svg>