<?xml version="1.0" encoding="UTF-8"?>
<svg width="512pt" height="512pt" version="1.1" viewBox="0 0 512 512" xmlns="http://www.w3.org/2000/svg">
 <path d="m479.15 189.36-14.352-174.85-48.805 21.633-55.312 40.473-69.996 22.223-49.434-3.7344-62.047-23.773 0.003907-0.054687-36.93 3.0352-44.656 1.9531-50.184 2.9219 3.918 118.45 3.8398 127.36 2.6328 90.648 35.012 1.7227 18.543 11.867 28.457 28.375 22.102 8.2422 16.289 9.8203 24.23-4.8398 18.422 6.5898 21.582-8.3711 19.293-3.3555 9.2188 17.832 19.914 11.41 25.277-4.9219 12.199-18.977-0.24609-29.039 12.512-29.262 13.996 2.2617 2.2734 14.449 8.7305-5.7852 2.2852-12.949 2.4844-23.82 21.039-24.059 12.453 2.0117 13.383-4.6797 11.23-7.2461 25.145-31.926 0.60156-13.559 7.5078-28.945 7.5508-34.789 2.1914-30.453-5.5938-16.242z" fill="#025195"/>
</svg>
