<?xml version="1.0" encoding="UTF-8"?>
<svg width="512pt" height="512pt" version="1.1" viewBox="0 0 512 512" xmlns="http://www.w3.org/2000/svg">
 <path d="m485.41 122.23-9.7109-6.0781-13.867-14.863-115.39 4.0625-19.941 8.7266-14.336-3.3281-10.867 6.6328-20.766 9.0312-25.344-0.99219-12.805 6.4844-11.789 2.8125-8.832-4.2461-20.059-3.5898-12.77 2.4258-21.879 8.1758-13.844-0.003906-12.949-3.3164-3.9219-11.332-1.1719-13.48-10.023-15.574-16.082-5.0273-13.332-7.6875-16.988-0.95312-11.57 0.71094-14.543 120.54-7.4766 89.93-21.258 84.809 17.262 45.473 250.63 4.4141 176.6-4.6094 0.007812-0.22266-4.9609-143.34 4.1133-22.898-5.0781-10.246-10.965-4.957-0.35938-12.801 7.3125-18.469 11.629-16.324 6.9805-26.211 6.6953-20.957 5.2148-10.707z" fill="#025195"/>
</svg>
