<?xml version="1.0" encoding="UTF-8"?>
<svg width="512pt" height="512pt" version="1.1" viewBox="0 0 512 512" xmlns="http://www.w3.org/2000/svg">
 <path d="m463.41 298.06-8.8906-2.9023-0.36719-16.992 8.8086-13.328-4.8945-13.578 12.375-9.8633 12.855-24.277 9.5-5.1406-13.223-6.8438-13.863-6.7266-5.8359-15.129 1.5898-11.746-9.8516-9.1484-17.883-15.875-107.18 3.4453-115 2.1641-123.12 0.21484 0.17188-28.699-0.17188 0.15625-59.773 29.98-2.3633 141.65-1.4727 97.25 85.004 0.78516 75.711 0.035156 25.867-0.40625 57.883-1.2266 69.754-1.0781 71.84-2.5898 5.9219-8.5586 7.1523-5.0117 17.738 4.7539 16.266-10.363 5.5469-6.8281 18.625-14.855 9.8828-11.988-26.711-26.16z" fill="#025195"/>
</svg>
