<?xml version="1.0" encoding="UTF-8"?>
<svg width="512pt" height="512pt" version="1.1" viewBox="0 0 512 512" xmlns="http://www.w3.org/2000/svg">
 <path d="m493.78 415.28-10.523-8.8906 4.3477-14.074 2.582-13.68 1.0312-9.2461-8.4297-10.824-0.875-20.602 8.1641-0.4375-2.9883-79.016-11.191-80.699-10.746-6.125-6.4883-12.824 2.6914-11.641 12.855-10.098 0.45703-12.379-112.45 8.793-96.289 1.4922-121.48 0.042969-113.16-2.4062-5.8281 77.625-4.5547 172.66 121.08 2.9531 93.047 0.54297 124.36-1.7266 16.324 10.254 23.055 6.0625 5.2188-4.0352 14.797-0.19531 22.16-1.668 16.508 10.207 17.375 6.293 3.1602 6.8984 5.5586 3.7969 10.527 0.66797z" fill="#025195"/>
</svg>
