<?xml version="1.0" encoding="UTF-8"?>
<svg width="512pt" height="512pt" version="1.1" viewBox="0 0 512 512" xmlns="http://www.w3.org/2000/svg">
 <path d="m491.99 214.61 0.8125-8.6641-27.805 3.1406-81.938 2.0859-37.184 3.8047-48.637-1.3164-15.809 1.2617-31.645-1.2305-32.238-0.042968-29.664-0.082032-34.449 2.0273-1.7734-3.125-10.93 0.13281 0.14453 10.75-78.805-1.4727-1.5625 6.5703-3.5664 9.6875-4.6445 16.578-0.69141 5.6523-5.8516 9.5156-9.9258 6.418-2.4141 11.277-9.0781 8.7656 0.16406 19.914-6.5781 6.2109 55.422 1.1406 61.75 2.1094 70.789-0.16016 72.312-0.32422 43.426-0.60938 30.012-1.7617 0.67578-14.516 11.715-4.7773 3.5508-7.4844 7.5859-8.6289 11.246-2.3086 12.98-3.7539 12.449-6.5273 5.1953-6.3047 10.316-6.0234-0.55469-4.918 13.457-10.035 4.8359 5.7617 19.691-14.098 9.6406 0.75 7.7695-12 11.039-3.6875z" fill="#025195"/>
</svg>
