<?xml version="1.0" encoding="UTF-8"?>
<svg width="512pt" height="512pt" version="1.1" viewBox="0 0 512 512" xmlns="http://www.w3.org/2000/svg">
 <g fill="#025195">
  <path d="m492.8 241.14-13.059 2.082-4.0742 5.1992-16.031 49.637 5.4062 2.4766z"/>
  <path d="m452.13 302.51-13.281-33.438-38.141-37.766-3.8711-9.8789-8.9805 3.625-7.6875-3.4609 5.4961-16.289 9.1484-7.2734 0.66016-5.8398 0.03125-4.2109-4.9922-5.8672-10.859-7.3906-11.996-3.6641 3.6836-7.9062-7.6797-4.9648-8.2539-2.0117-5.5898 13.719-29.305-18.035-3.5469 19.234-6.6133 7.3984-10.555 9.8086-7.9258 9.5625-4.1719-2.832-5.8516 10.387-5.207 9.082-2.4688 6.6211-7.9961 3.0391-8.5312-4.832-7.6289-5.3086-4.9336 15.734-9.3125 13-2.5039 10.641-10.715 9.6211-7.3945 12.582 1.207 8.2656-1.0898 6.5742-8.9453 5.7383-7.9844-0.85547-6.9766 5.3633-6.5-2.418-1.1328 6.4375-21.266 6.3047-6.9492-4.9492-17.973 8.8164-8.75-5.6992-6.4688-6.4414-2.6055-12.145-22.812 21.398-17.902 8.3438-1.418 5.7891-6.1523 7.5352-15.805 8.4062-5.1992 6.9414-11.93 4.332-16.742 3.8555 85.914 2.957 29.297-1.543 97.543 1.4609 115.16-3.9297 61.051-3.8945 61.867-4.4453-19.652-43.246z"/>
 </g>
</svg>
