<?xml version="1.0" encoding="UTF-8"?>
<svg width="512pt" height="512pt" version="1.1" viewBox="0 0 512 512" xmlns="http://www.w3.org/2000/svg">
 <path d="m484.61 347-3.9375-127.59-2.2227-117.39-180.22-0.13281-180.12-6.2617 25.391 77.199 6.6641 75.672-16.461 23.535-24.07-73.121-84.883-21.582 4.6211 88.758 12.48 77 13.188-0.49219 19.309 1.543 14.961 9.1133 18.164 6.1562 10.984 17.992 0.96484 15.375 4.1562 13.004 14.645 4.125 15.758 0.37891 25.121-8.707 14.598-2.418 22.727 4.6367 9.9375 5.0664 13.492-2.8789 14.746-7.0312 28.812 1.8164 23.879-9.7109 12.547-7.2539 16.223 4.1758 22.93-9.3867 131.43-1.4883 0.25391-16.262z" fill="#025195"/>
</svg>
