<?xml version="1.0" encoding="UTF-8"?>
<svg width="512pt" height="512pt" version="1.1" viewBox="0 0 512 512" xmlns="http://www.w3.org/2000/svg">
 <path d="m484.83 188.87-12.152-17.375-29.844-9.1016-18.223 9.7305-10.293 9.3945-28.383-4.4648-12.613 13.148-18.977 5.1641-16.332 14.441-14.66 11.238 0.30078-62.875-99.629 0.30859 0.32031-113.99-13.105 6.1328 3.9492 15.773-4.5508 28.531-9.957 32.188-9.4336 26.68-1.6758 12.738-26.309 28.051-11.184 5.918-13 3.3242-11.574-2.9141-21.801 20.969-4.2812 22.258-3.2109 12.023-8.707 4.7422-0.96484-13.805-13.012-3.2773-14.184 26.57-2.1328 27.402-13.047 16.898-24.234 2.582 1.5352 11.801-1.7031 25.594 11.199 19.645 4.2891 18.879 13.984 16.418 9.5352 15.199 19.156 2.6836 3.9609 21.098 10.977 11.402 14.852 10.191 31.422-14.516 11.809 8.8867 37.02-10.043 2.2188-11.09 11.133 4.5 12.273-9 13.77 1.8008 15.645-9.5703 2.1484-11.324-1.6172-14.527 13.344-21.453 18.859-16.215 4.7539-18.297 16.621-22.094 9.1602-27.008 12.977 9.4805 14.609 8.7109 13.895-4.9453 4.5273-11.293 9.375-15.547 10.574-17.664 7.0977 5.0664 14.09-16.219 18.641-16.531 11.727-12.527 6.9023-33.109 49.945 32.355 10.168-23.559z" fill="#025195"/>
</svg>
