<svg width="184" height="41" viewBox="0 0 184 41" fill="none" xmlns="http://www.w3.org/2000/svg">
<path d="M52.64 5.19L51.55 5.07V4.57H54.2L55.61 9.07L55.94 10.34L56.24 9.07L57.64 4.57H60.27V5.07L59.17 5.19L59.97 11.4L60.84 11.51V12H57.96V11.51L58.87 11.41L58.42 6.92L58.21 4.99L57.79 6.43L56.12 11.66H55.47L53.85 6.87L53.26 4.98L53.08 6.92L52.68 11.41L53.67 11.51V12H51.06V11.51L51.91 11.41L52.64 5.19ZM65.9023 12.09C65.7157 12.09 65.5757 12.0533 65.4823 11.98C65.3957 11.9067 65.3523 11.7867 65.3523 11.62V11.28C65.1323 11.5 64.8557 11.6933 64.5223 11.86C64.1957 12.0267 63.8657 12.11 63.5323 12.11C62.9123 12.11 62.4723 11.9433 62.2123 11.61C61.9523 11.2767 61.8223 10.7267 61.8223 9.96V7.06L61.2623 6.9V6.46L62.6623 6.33H62.6723L62.8623 6.45V9.88C62.8623 10.2667 62.889 10.57 62.9423 10.79C63.0023 11.0033 63.1023 11.1633 63.2423 11.27C63.389 11.37 63.599 11.42 63.8723 11.42C64.139 11.42 64.389 11.3633 64.6223 11.25C64.8557 11.1367 65.059 11.0033 65.2323 10.85V7.06L64.5123 6.9V6.46L66.0323 6.33H66.0423L66.2723 6.45V11.49H66.8723L66.8623 11.94C66.6757 11.9867 66.5123 12.0233 66.3723 12.05C66.239 12.0767 66.0823 12.09 65.9023 12.09ZM69.3807 12.1C69.0007 12.1 68.7174 12.0133 68.5307 11.84C68.344 11.6667 68.2507 11.37 68.2507 10.95V7.11H67.5307V6.66C67.564 6.65333 67.6574 6.63 67.8107 6.59C67.964 6.55 68.0674 6.51333 68.1207 6.48C68.2274 6.42 68.3107 6.3 68.3707 6.12C68.424 5.99333 68.4874 5.79 68.5607 5.51C68.634 5.23 68.6774 5.06333 68.6907 5.01H69.2807L69.3007 6.45H70.9707V7.11H69.3007V10.18C69.3007 10.56 69.3107 10.8267 69.3307 10.98C69.3574 11.1333 69.4074 11.2333 69.4807 11.28C69.5607 11.3267 69.694 11.35 69.8807 11.35C70.0607 11.35 70.2574 11.3267 70.4707 11.28C70.6907 11.2333 70.8607 11.1833 70.9807 11.13L71.1307 11.58C70.9707 11.7 70.7107 11.8167 70.3507 11.93C69.9974 12.0433 69.674 12.1 69.3807 12.1ZM76.293 12.09C76.1063 12.09 75.9663 12.0533 75.873 11.98C75.7863 11.9067 75.743 11.7867 75.743 11.62V11.28C75.523 11.5 75.2463 11.6933 74.913 11.86C74.5863 12.0267 74.2563 12.11 73.923 12.11C73.303 12.11 72.863 11.9433 72.603 11.61C72.343 11.2767 72.213 10.7267 72.213 9.96V7.06L71.653 6.9V6.46L73.053 6.33H73.063L73.253 6.45V9.88C73.253 10.2667 73.2796 10.57 73.333 10.79C73.393 11.0033 73.493 11.1633 73.633 11.27C73.7796 11.37 73.9896 11.42 74.263 11.42C74.5296 11.42 74.7796 11.3633 75.013 11.25C75.2463 11.1367 75.4496 11.0033 75.623 10.85V7.06L74.903 6.9V6.46L76.423 6.33H76.433L76.663 6.45V11.49H77.263L77.253 11.94C77.0663 11.9867 76.903 12.0233 76.763 12.05C76.6296 12.0767 76.473 12.09 76.293 12.09ZM78.0613 10.5C78.0613 9.87333 78.3747 9.41333 79.0013 9.12C79.628 8.82 80.4213 8.66 81.3813 8.64V8.36C81.3813 8.04667 81.348 7.8 81.2813 7.62C81.2147 7.44 81.098 7.31 80.9313 7.23C80.7713 7.14333 80.5413 7.1 80.2413 7.1C79.9013 7.1 79.5947 7.15 79.3213 7.25C79.0547 7.34333 78.788 7.46 78.5213 7.6L78.2713 7.08C78.358 7.00667 78.518 6.91 78.7513 6.79C78.9847 6.67 79.2547 6.56333 79.5613 6.47C79.868 6.37667 80.1747 6.33 80.4813 6.33C80.9547 6.33 81.328 6.39667 81.6013 6.53C81.8813 6.65667 82.0813 6.86333 82.2013 7.15C82.3213 7.43667 82.3813 7.82 82.3813 8.3V11.51H82.9713V11.95C82.838 11.9833 82.668 12.0167 82.4613 12.05C82.2613 12.0833 82.0847 12.1 81.9313 12.1C81.7447 12.1 81.618 12.07 81.5513 12.01C81.4847 11.9567 81.4513 11.8333 81.4513 11.64V11.31C81.2513 11.51 81.0047 11.6933 80.7113 11.86C80.4247 12.0267 80.098 12.11 79.7313 12.11C79.2513 12.11 78.8513 11.9733 78.5313 11.7C78.218 11.42 78.0613 11.02 78.0613 10.5ZM80.1613 11.43C80.3347 11.43 80.5347 11.3767 80.7613 11.27C80.988 11.1633 81.1947 11.0367 81.3813 10.89V9.17C80.6547 9.17 80.1047 9.28333 79.7313 9.51C79.3647 9.73 79.1813 10.02 79.1813 10.38C79.1813 10.74 79.268 11.0067 79.4413 11.18C79.6213 11.3467 79.8613 11.43 80.1613 11.43ZM84.3968 4.54L83.5868 4.43V4L85.1968 3.81H85.2168L85.4368 3.96V11.43L86.2868 11.51V12H83.5868V11.51L84.3968 11.42V4.54ZM91.8199 4.51H92.9199L95.3499 11.41L95.9699 11.51V12H93.3299V11.51L94.1599 11.41L93.6899 9.93H90.7699L90.2999 11.41L91.1599 11.51V12H88.7899V11.51L89.4099 11.41L91.8199 4.51ZM92.4499 6.11L92.1999 5.23L91.9599 6.13L90.9499 9.34H93.4999L92.4499 6.11ZM97.4738 5.45C97.2604 5.45 97.1004 5.39 96.9938 5.27C96.8871 5.15 96.8338 4.99667 96.8338 4.81C96.8338 4.59667 96.8971 4.42 97.0238 4.28C97.1571 4.14 97.3371 4.07 97.5638 4.07C97.7904 4.07 97.9571 4.13 98.0638 4.25C98.1704 4.37 98.2238 4.52333 98.2238 4.71C98.2238 4.93667 98.1571 5.11667 98.0238 5.25C97.8971 5.38333 97.7171 5.45 97.4838 5.45H97.4738ZM97.0738 7.22L96.3138 7.04V6.51L97.8638 6.32H97.8838L98.1138 6.5V11.43L98.9138 11.51V12H96.2638V11.51L97.0738 11.42V7.22ZM101.784 12.11C101.384 12.11 101.017 12.01 100.684 11.81C100.35 11.61 100.084 11.3033 99.8838 10.89C99.6905 10.4767 99.5938 9.96667 99.5938 9.36C99.5938 8.79333 99.7105 8.27667 99.9438 7.81C100.177 7.34333 100.51 6.97667 100.944 6.71C101.384 6.43667 101.9 6.3 102.494 6.3C102.834 6.3 103.144 6.33667 103.424 6.41V4.54L102.404 4.42V3.99L104.204 3.81H104.234L104.454 3.97V11.49H105.034V11.95C104.82 11.9967 104.634 12.0333 104.474 12.06C104.32 12.0867 104.157 12.1 103.984 12.1C103.81 12.1 103.687 12.07 103.614 12.01C103.54 11.95 103.504 11.8233 103.504 11.63V11.31C103.317 11.5367 103.07 11.7267 102.764 11.88C102.464 12.0333 102.137 12.11 101.784 12.11ZM102.184 11.4C102.444 11.4 102.687 11.3433 102.914 11.23C103.14 11.11 103.31 10.9733 103.424 10.82V7.16C103.37 7.08 103.244 7.01 103.044 6.95C102.85 6.88333 102.644 6.85 102.424 6.85C101.904 6.85 101.487 7.05 101.174 7.45C100.867 7.84333 100.714 8.45333 100.714 9.28C100.714 10 100.85 10.5333 101.124 10.88C101.397 11.2267 101.75 11.4 102.184 11.4ZM53.9 25.11C53.5533 25.11 53.2433 25.08 52.97 25.02C52.6967 24.96 52.3967 24.88 52.07 24.78C51.87 24.7067 51.72 24.6667 51.62 24.66L51.7 22.85H52.34L52.51 24.15C52.6233 24.2567 52.8067 24.3533 53.06 24.44C53.32 24.52 53.6033 24.56 53.91 24.56C54.4167 24.56 54.8 24.4467 55.06 24.22C55.3267 23.9933 55.46 23.68 55.46 23.28C55.46 23.02 55.3867 22.7967 55.24 22.61C55.1 22.4233 54.91 22.2633 54.67 22.13C54.4367 21.9967 54.1133 21.84 53.7 21.66C53.3267 21.4933 53 21.3233 52.72 21.15C52.4467 20.9767 52.2067 20.7467 52 20.46C51.8 20.1667 51.7 19.8167 51.7 19.41C51.7 19.0433 51.7967 18.7167 51.99 18.43C52.19 18.1367 52.4733 17.9067 52.84 17.74C53.2133 17.5733 53.6467 17.49 54.14 17.49C54.4467 17.49 54.7167 17.5133 54.95 17.56C55.19 17.6067 55.46 17.67 55.76 17.75C55.8933 17.7967 56.0067 17.8267 56.1 17.84L56.04 19.52H55.43L55.23 18.29C55.1633 18.2233 55.0233 18.16 54.81 18.1C54.6033 18.04 54.3767 18.01 54.13 18.01C53.67 18.01 53.32 18.1067 53.08 18.3C52.8467 18.4933 52.73 18.7733 52.73 19.14C52.73 19.4067 52.8 19.63 52.94 19.81C53.0867 19.99 53.2667 20.1433 53.48 20.27C53.6933 20.3967 54.0333 20.57 54.5 20.79C54.9333 20.9967 55.2867 21.1833 55.56 21.35C55.8333 21.5167 56.0667 21.7367 56.26 22.01C56.46 22.2767 56.56 22.5967 56.56 22.97C56.56 23.3233 56.46 23.6633 56.26 23.99C56.0667 24.3167 55.7667 24.5867 55.36 24.8C54.96 25.0067 54.4733 25.11 53.9 25.11ZM59.8475 25.11C59.0408 25.11 58.4242 24.8467 57.9975 24.32C57.5775 23.7933 57.3675 23.09 57.3675 22.21C57.3675 21.63 57.4775 21.12 57.6975 20.68C57.9175 20.24 58.2242 19.9 58.6175 19.66C59.0175 19.42 59.4708 19.3 59.9775 19.3C60.5975 19.3 61.0775 19.4733 61.4175 19.82C61.7642 20.16 61.9475 20.65 61.9675 21.29C61.9675 21.6967 61.9442 22.0067 61.8975 22.22H58.4575C58.4708 22.88 58.6242 23.4133 58.9175 23.82C59.2108 24.22 59.6275 24.42 60.1675 24.42C60.4342 24.42 60.7108 24.3733 60.9975 24.28C61.2908 24.18 61.5175 24.0633 61.6775 23.93L61.8675 24.37C61.6742 24.57 61.3875 24.7433 61.0075 24.89C60.6275 25.0367 60.2408 25.11 59.8475 25.11ZM60.8675 21.69C60.8875 21.55 60.8975 21.4067 60.8975 21.26C60.8908 20.8267 60.7975 20.4867 60.6175 20.24C60.4442 19.9867 60.1675 19.86 59.7875 19.86C59.4008 19.86 59.0908 20 58.8575 20.28C58.6308 20.56 58.5008 21.03 58.4675 21.69H60.8675ZM62.707 22.26C62.707 21.7067 62.8136 21.2067 63.027 20.76C63.247 20.3133 63.567 19.96 63.987 19.7C64.4136 19.4333 64.9236 19.3 65.517 19.3C65.8036 19.3 66.0503 19.3267 66.257 19.38C66.4636 19.4333 66.7103 19.5067 66.997 19.6L66.957 21.14H66.307L66.087 20.12C66.047 19.9333 65.7936 19.84 65.327 19.84C64.8603 19.84 64.4903 20.03 64.217 20.41C63.9503 20.7833 63.817 21.3167 63.817 22.01C63.817 22.7967 63.967 23.3967 64.267 23.81C64.5736 24.2167 64.9703 24.42 65.457 24.42C65.737 24.42 66.0003 24.3767 66.247 24.29C66.5003 24.2033 66.717 24.1 66.897 23.98L67.087 24.38C66.907 24.5667 66.6403 24.7367 66.287 24.89C65.9403 25.0367 65.587 25.11 65.227 25.11C64.6803 25.11 64.217 24.9867 63.837 24.74C63.4636 24.4933 63.1803 24.1567 62.987 23.73C62.8003 23.2967 62.707 22.8067 62.707 22.26ZM67.9539 22.21C67.9539 21.61 68.0772 21.09 68.3239 20.65C68.5706 20.21 68.8939 19.8767 69.2939 19.65C69.7006 19.4167 70.1339 19.3 70.5939 19.3C71.4339 19.3 72.0639 19.5667 72.4839 20.1C72.9106 20.6333 73.1239 21.3333 73.1239 22.2C73.1239 22.8067 73.0006 23.33 72.7539 23.77C72.5072 24.21 72.1806 24.5433 71.7739 24.77C71.3739 24.9967 70.9439 25.11 70.4839 25.11C69.6439 25.11 69.0106 24.8433 68.5839 24.31C68.1639 23.7767 67.9539 23.0767 67.9539 22.21ZM70.5439 24.54C71.0039 24.54 71.3572 24.35 71.6039 23.97C71.8506 23.59 71.9739 23.0267 71.9739 22.28C71.9739 21.54 71.8606 20.9533 71.6339 20.52C71.4072 20.0867 71.0439 19.87 70.5439 19.87C70.0839 19.87 69.7272 20.06 69.4739 20.44C69.2272 20.82 69.1039 21.3833 69.1039 22.13C69.1039 22.87 69.2206 23.4567 69.4539 23.89C69.6872 24.3233 70.0506 24.54 70.5439 24.54ZM74.6379 20.22L73.9179 20.04V19.5L75.3479 19.32H75.3779L75.5879 19.5V19.92L75.5779 20.16C75.8179 19.9467 76.1346 19.7533 76.5279 19.58C76.9212 19.4067 77.2979 19.32 77.6579 19.32C78.0779 19.32 78.4012 19.4 78.6279 19.56C78.8612 19.72 79.0246 19.9667 79.1179 20.3C79.2112 20.6267 79.2579 21.07 79.2579 21.63V24.43L79.9579 24.5V25H77.5879V24.51L78.2079 24.43V21.62C78.2079 21.2267 78.1812 20.92 78.1279 20.7C78.0746 20.4733 77.9746 20.3067 77.8279 20.2C77.6812 20.0867 77.4679 20.03 77.1879 20.03C76.9479 20.03 76.6912 20.09 76.4179 20.21C76.1446 20.33 75.9012 20.47 75.6879 20.63V24.42L76.3679 24.51V25H74.0079V24.51L74.6379 24.42V20.22ZM82.8385 25.11C82.4385 25.11 82.0718 25.01 81.7385 24.81C81.4052 24.61 81.1385 24.3033 80.9385 23.89C80.7452 23.4767 80.6485 22.9667 80.6485 22.36C80.6485 21.7933 80.7652 21.2767 80.9985 20.81C81.2318 20.3433 81.5652 19.9767 81.9985 19.71C82.4385 19.4367 82.9552 19.3 83.5485 19.3C83.8885 19.3 84.1985 19.3367 84.4785 19.41V17.54L83.4585 17.42V16.99L85.2585 16.81H85.2885L85.5085 16.97V24.49H86.0885V24.95C85.8752 24.9967 85.6885 25.0333 85.5285 25.06C85.3752 25.0867 85.2118 25.1 85.0385 25.1C84.8652 25.1 84.7418 25.07 84.6685 25.01C84.5952 24.95 84.5585 24.8233 84.5585 24.63V24.31C84.3718 24.5367 84.1252 24.7267 83.8185 24.88C83.5185 25.0333 83.1918 25.11 82.8385 25.11ZM83.2385 24.4C83.4985 24.4 83.7418 24.3433 83.9685 24.23C84.1952 24.11 84.3652 23.9733 84.4785 23.82V20.16C84.4252 20.08 84.2985 20.01 84.0985 19.95C83.9052 19.8833 83.6985 19.85 83.4785 19.85C82.9585 19.85 82.5418 20.05 82.2285 20.45C81.9218 20.8433 81.7685 21.4533 81.7685 22.28C81.7685 23 81.9052 23.5333 82.1785 23.88C82.4518 24.2267 82.8052 24.4 83.2385 24.4ZM89.2725 24.51L90.1025 24.41V18.19L89.3225 18.06V17.57H90.6325C90.8192 17.57 91.0725 17.5567 91.3925 17.53C91.7258 17.5033 91.9858 17.49 92.1725 17.49C93.1525 17.49 93.8492 17.65 94.2625 17.97C94.6825 18.2833 94.8925 18.78 94.8925 19.46C94.8925 19.9333 94.7592 20.3667 94.4925 20.76C94.2325 21.1533 93.8725 21.42 93.4125 21.56C93.6258 21.6733 93.8225 21.87 94.0025 22.15C94.1892 22.4233 94.4158 22.8067 94.6825 23.3C94.8892 23.6733 95.0458 23.9467 95.1525 24.12C95.2658 24.2933 95.3725 24.39 95.4725 24.41L95.8625 24.51V25H94.4825C94.3758 25 94.2558 24.8867 94.1225 24.66C93.9892 24.4267 93.8125 24.07 93.5925 23.59C93.3525 23.0633 93.1425 22.6467 92.9625 22.34C92.7892 22.0267 92.6158 21.8267 92.4425 21.74C91.7292 21.74 91.3058 21.7367 91.1725 21.73V24.41L92.1625 24.51V25H89.2725V24.51ZM92.3625 21.2C92.7892 21.2 93.1258 21.06 93.3725 20.78C93.6192 20.5 93.7425 20.0833 93.7425 19.53C93.7425 19.0433 93.6158 18.6733 93.3625 18.42C93.1158 18.16 92.6858 18.03 92.0725 18.03C91.8592 18.03 91.6458 18.0433 91.4325 18.07C91.2992 18.0833 91.2125 18.09 91.1725 18.09V21.19C91.2725 21.1967 91.4792 21.2 91.7925 21.2H92.3625ZM98.7635 25.11C97.9568 25.11 97.3402 24.8467 96.9135 24.32C96.4935 23.7933 96.2835 23.09 96.2835 22.21C96.2835 21.63 96.3935 21.12 96.6135 20.68C96.8335 20.24 97.1402 19.9 97.5335 19.66C97.9335 19.42 98.3868 19.3 98.8935 19.3C99.5135 19.3 99.9935 19.4733 100.334 19.82C100.68 20.16 100.864 20.65 100.884 21.29C100.884 21.6967 100.86 22.0067 100.814 22.22H97.3735C97.3868 22.88 97.5402 23.4133 97.8335 23.82C98.1268 24.22 98.5435 24.42 99.0835 24.42C99.3502 24.42 99.6268 24.3733 99.9135 24.28C100.207 24.18 100.434 24.0633 100.594 23.93L100.784 24.37C100.59 24.57 100.304 24.7433 99.9235 24.89C99.5435 25.0367 99.1568 25.11 98.7635 25.11ZM99.7835 21.69C99.8035 21.55 99.8135 21.4067 99.8135 21.26C99.8068 20.8267 99.7135 20.4867 99.5335 20.24C99.3602 19.9867 99.0835 19.86 98.7035 19.86C98.3168 19.86 98.0068 20 97.7735 20.28C97.5468 20.56 97.4168 21.03 97.3835 21.69H99.7835ZM102.673 24.2C102.74 24.3 102.88 24.39 103.093 24.47C103.313 24.55 103.543 24.59 103.783 24.59C104.163 24.59 104.443 24.5167 104.623 24.37C104.803 24.2233 104.893 24.02 104.893 23.76C104.893 23.58 104.836 23.4233 104.723 23.29C104.61 23.1567 104.45 23.04 104.243 22.94C104.043 22.8333 103.753 22.7067 103.373 22.56C102.86 22.3667 102.483 22.1367 102.243 21.87C102.01 21.5967 101.893 21.24 101.893 20.8C101.893 20.5067 101.98 20.25 102.153 20.03C102.333 19.81 102.576 19.64 102.883 19.52C103.196 19.3933 103.543 19.33 103.923 19.33C104.23 19.33 104.496 19.3533 104.723 19.4C104.956 19.4467 105.143 19.4933 105.283 19.54C105.423 19.5867 105.516 19.6167 105.563 19.63V20.87H104.953L104.753 20.13C104.713 20.05 104.606 19.9833 104.433 19.93C104.26 19.87 104.066 19.84 103.853 19.84C103.553 19.84 103.31 19.9067 103.123 20.04C102.943 20.1733 102.853 20.3533 102.853 20.58C102.853 20.78 102.9 20.9467 102.993 21.08C103.093 21.2067 103.216 21.31 103.363 21.39C103.51 21.47 103.71 21.5633 103.963 21.67L104.163 21.75C104.536 21.8967 104.84 22.0367 105.073 22.17C105.306 22.3033 105.5 22.48 105.653 22.7C105.813 22.9133 105.893 23.1767 105.893 23.49C105.893 23.9833 105.7 24.3767 105.313 24.67C104.933 24.9633 104.41 25.11 103.743 25.11C103.416 25.11 103.073 25.0667 102.713 24.98C102.36 24.8867 102.07 24.7933 101.843 24.7V23.42H102.493L102.673 24.2ZM112.202 22.03C112.202 22.5967 112.085 23.1167 111.852 23.59C111.618 24.0567 111.285 24.4267 110.852 24.7C110.418 24.9733 109.912 25.11 109.332 25.11C109.172 25.11 108.998 25.0967 108.812 25.07C108.625 25.0433 108.475 25.01 108.362 24.97L108.392 25.81V26.82L109.432 26.93V27.42H106.642V26.93L107.362 26.82V20.22L106.632 20.04V19.5L108.052 19.32H108.072L108.282 19.5V20.09C108.482 19.87 108.728 19.6833 109.022 19.53C109.322 19.3767 109.655 19.3 110.022 19.3C110.415 19.3 110.775 19.3967 111.102 19.59C111.435 19.7833 111.702 20.0833 111.902 20.49C112.102 20.8967 112.202 21.41 112.202 22.03ZM109.612 20C109.358 20 109.122 20.0533 108.902 20.16C108.682 20.2667 108.512 20.3833 108.392 20.51V24.28C108.438 24.36 108.555 24.4333 108.742 24.5C108.935 24.56 109.145 24.59 109.372 24.59C109.885 24.59 110.298 24.3867 110.612 23.98C110.932 23.5733 111.092 22.96 111.092 22.14C111.092 21.42 110.952 20.8833 110.672 20.53C110.398 20.1767 110.045 20 109.612 20ZM113.071 22.21C113.071 21.61 113.194 21.09 113.441 20.65C113.688 20.21 114.011 19.8767 114.411 19.65C114.818 19.4167 115.251 19.3 115.711 19.3C116.551 19.3 117.181 19.5667 117.601 20.1C118.028 20.6333 118.241 21.3333 118.241 22.2C118.241 22.8067 118.118 23.33 117.871 23.77C117.624 24.21 117.298 24.5433 116.891 24.77C116.491 24.9967 116.061 25.11 115.601 25.11C114.761 25.11 114.128 24.8433 113.701 24.31C113.281 23.7767 113.071 23.0767 113.071 22.21ZM115.661 24.54C116.121 24.54 116.474 24.35 116.721 23.97C116.968 23.59 117.091 23.0267 117.091 22.28C117.091 21.54 116.978 20.9533 116.751 20.52C116.524 20.0867 116.161 19.87 115.661 19.87C115.201 19.87 114.844 20.06 114.591 20.44C114.344 20.82 114.221 21.3833 114.221 22.13C114.221 22.87 114.338 23.4567 114.571 23.89C114.804 24.3233 115.168 24.54 115.661 24.54ZM119.755 20.22L119.035 20.04V19.5L120.465 19.32H120.495L120.705 19.5V19.92L120.695 20.16C120.935 19.9467 121.252 19.7533 121.645 19.58C122.038 19.4067 122.415 19.32 122.775 19.32C123.195 19.32 123.518 19.4 123.745 19.56C123.978 19.72 124.142 19.9667 124.235 20.3C124.328 20.6267 124.375 21.07 124.375 21.63V24.43L125.075 24.5V25H122.705V24.51L123.325 24.43V21.62C123.325 21.2267 123.298 20.92 123.245 20.7C123.192 20.4733 123.092 20.3067 122.945 20.2C122.798 20.0867 122.585 20.03 122.305 20.03C122.065 20.03 121.808 20.09 121.535 20.21C121.262 20.33 121.018 20.47 120.805 20.63V24.42L121.485 24.51V25H119.125V24.51L119.755 24.42V20.22ZM127.956 25.11C127.556 25.11 127.189 25.01 126.856 24.81C126.522 24.61 126.256 24.3033 126.056 23.89C125.862 23.4767 125.766 22.9667 125.766 22.36C125.766 21.7933 125.882 21.2767 126.116 20.81C126.349 20.3433 126.682 19.9767 127.116 19.71C127.556 19.4367 128.072 19.3 128.666 19.3C129.006 19.3 129.316 19.3367 129.596 19.41V17.54L128.576 17.42V16.99L130.376 16.81H130.406L130.626 16.97V24.49H131.206V24.95C130.992 24.9967 130.806 25.0333 130.646 25.06C130.492 25.0867 130.329 25.1 130.156 25.1C129.982 25.1 129.859 25.07 129.786 25.01C129.712 24.95 129.676 24.8233 129.676 24.63V24.31C129.489 24.5367 129.242 24.7267 128.936 24.88C128.636 25.0333 128.309 25.11 127.956 25.11ZM128.356 24.4C128.616 24.4 128.859 24.3433 129.086 24.23C129.312 24.11 129.482 23.9733 129.596 23.82V20.16C129.542 20.08 129.416 20.01 129.216 19.95C129.022 19.8833 128.816 19.85 128.596 19.85C128.076 19.85 127.659 20.05 127.346 20.45C127.039 20.8433 126.886 21.4533 126.886 22.28C126.886 23 127.022 23.5333 127.296 23.88C127.569 24.2267 127.922 24.4 128.356 24.4ZM134.467 25.11C133.66 25.11 133.043 24.8467 132.617 24.32C132.197 23.7933 131.987 23.09 131.987 22.21C131.987 21.63 132.097 21.12 132.317 20.68C132.537 20.24 132.843 19.9 133.237 19.66C133.637 19.42 134.09 19.3 134.597 19.3C135.217 19.3 135.697 19.4733 136.037 19.82C136.383 20.16 136.567 20.65 136.587 21.29C136.587 21.6967 136.563 22.0067 136.517 22.22H133.077C133.09 22.88 133.243 23.4133 133.537 23.82C133.83 24.22 134.247 24.42 134.787 24.42C135.053 24.42 135.33 24.3733 135.617 24.28C135.91 24.18 136.137 24.0633 136.297 23.93L136.487 24.37C136.293 24.57 136.007 24.7433 135.627 24.89C135.247 25.0367 134.86 25.11 134.467 25.11ZM135.487 21.69C135.507 21.55 135.517 21.4067 135.517 21.26C135.51 20.8267 135.417 20.4867 135.237 20.24C135.063 19.9867 134.787 19.86 134.407 19.86C134.02 19.86 133.71 20 133.477 20.28C133.25 20.56 133.12 21.03 133.087 21.69H135.487ZM137.466 24.51L138.216 24.45V20.22L137.496 20.04V19.5L138.876 19.32H138.896L139.116 19.5V19.68L139.086 20.46H139.116C139.183 20.3467 139.303 20.2 139.476 20.02C139.649 19.84 139.873 19.6767 140.146 19.53C140.419 19.3767 140.716 19.3 141.036 19.3C141.169 19.3 141.279 19.3167 141.366 19.35V20.47C141.319 20.4367 141.243 20.4067 141.136 20.38C141.036 20.3467 140.923 20.33 140.796 20.33C140.243 20.33 139.729 20.5 139.256 20.84V24.44L140.526 24.52V25H137.466V24.51ZM54.78 38.11C54.0467 38.11 53.42 37.9533 52.9 37.64C52.3867 37.32 51.9967 36.8733 51.73 36.3C51.4633 35.7267 51.33 35.0533 51.33 34.28C51.33 33.5333 51.4867 32.8733 51.8 32.3C52.1133 31.7267 52.5433 31.2833 53.09 30.97C53.6367 30.65 54.25 30.49 54.93 30.49C55.4433 30.49 56.06 30.57 56.78 30.73L57.11 30.79L57.01 32.59H56.34L56.09 31.32C55.9967 31.24 55.8333 31.1733 55.6 31.12C55.3733 31.06 55.0933 31.03 54.76 31.03C54.3333 31.03 53.9533 31.1533 53.62 31.4C53.2867 31.64 53.0233 31.9967 52.83 32.47C52.6433 32.9433 52.55 33.51 52.55 34.17C52.55 34.7967 52.6333 35.3667 52.8 35.88C52.9667 36.3933 53.22 36.8033 53.56 37.11C53.9 37.41 54.32 37.56 54.82 37.56C55.1733 37.56 55.4433 37.53 55.63 37.47C55.8233 37.41 55.9867 37.3233 56.12 37.21L56.54 36.23L57.17 36.31L56.93 37.73C56.79 37.7367 56.5833 37.7833 56.31 37.87C56.07 37.9433 55.8367 38 55.61 38.04C55.39 38.0867 55.1133 38.11 54.78 38.11ZM57.9832 35.21C57.9832 34.61 58.1065 34.09 58.3532 33.65C58.5999 33.21 58.9232 32.8767 59.3232 32.65C59.7299 32.4167 60.1632 32.3 60.6232 32.3C61.4632 32.3 62.0932 32.5667 62.5132 33.1C62.9399 33.6333 63.1532 34.3333 63.1532 35.2C63.1532 35.8067 63.0299 36.33 62.7832 36.77C62.5365 37.21 62.2099 37.5433 61.8032 37.77C61.4032 37.9967 60.9732 38.11 60.5132 38.11C59.6732 38.11 59.0399 37.8433 58.6132 37.31C58.1932 36.7767 57.9832 36.0767 57.9832 35.21ZM60.5732 37.54C61.0332 37.54 61.3865 37.35 61.6332 36.97C61.8799 36.59 62.0032 36.0267 62.0032 35.28C62.0032 34.54 61.8899 33.9533 61.6632 33.52C61.4365 33.0867 61.0732 32.87 60.5732 32.87C60.1132 32.87 59.7565 33.06 59.5032 33.44C59.2565 33.82 59.1332 34.3833 59.1332 35.13C59.1332 35.87 59.2499 36.4567 59.4832 36.89C59.7165 37.3233 60.0799 37.54 60.5732 37.54ZM64.0572 37.51L64.6672 37.42V33.22L63.9472 33.04V32.5L65.3772 32.32L65.5572 32.45L65.6172 32.85L65.6072 33.17C65.8405 32.9567 66.1572 32.7633 66.5572 32.59C66.9639 32.41 67.3272 32.32 67.6472 32.32C68.0072 32.32 68.2972 32.38 68.5172 32.5C68.7372 32.62 68.9039 32.8067 69.0172 33.06C69.2305 32.88 69.5272 32.7133 69.9072 32.56C70.2939 32.4 70.6539 32.32 70.9872 32.32C71.4005 32.32 71.7239 32.4 71.9572 32.56C72.1905 32.7133 72.3539 32.9567 72.4472 33.29C72.5472 33.6167 72.5972 34.0567 72.5972 34.61V37.42L73.3172 37.51V38H70.9372V37.51L71.5572 37.42V34.64C71.5572 34.2533 71.5272 33.9467 71.4672 33.72C71.4139 33.4867 71.3072 33.3133 71.1472 33.2C70.9939 33.0867 70.7705 33.03 70.4772 33.03C70.2572 33.03 70.0239 33.08 69.7772 33.18C69.5305 33.2733 69.3205 33.3867 69.1472 33.52C69.2072 33.78 69.2372 34.15 69.2372 34.63V37.42L69.9472 37.51V38H67.5272V37.51L68.1872 37.42V34.62C68.1872 34.22 68.1605 33.91 68.1072 33.69C68.0605 33.47 67.9672 33.3067 67.8272 33.2C67.6872 33.0867 67.4739 33.03 67.1872 33.03C66.9472 33.03 66.6905 33.09 66.4172 33.21C66.1505 33.33 65.9172 33.47 65.7172 33.63V37.42L66.3872 37.51V38H64.0572V37.51ZM74.0084 37.51L74.6184 37.42V33.22L73.8984 33.04V32.5L75.3284 32.32L75.5084 32.45L75.5684 32.85L75.5584 33.17C75.7917 32.9567 76.1084 32.7633 76.5084 32.59C76.915 32.41 77.2784 32.32 77.5984 32.32C77.9584 32.32 78.2484 32.38 78.4684 32.5C78.6884 32.62 78.855 32.8067 78.9684 33.06C79.1817 32.88 79.4784 32.7133 79.8584 32.56C80.245 32.4 80.605 32.32 80.9384 32.32C81.3517 32.32 81.675 32.4 81.9084 32.56C82.1417 32.7133 82.305 32.9567 82.3984 33.29C82.4984 33.6167 82.5484 34.0567 82.5484 34.61V37.42L83.2684 37.51V38H80.8884V37.51L81.5084 37.42V34.64C81.5084 34.2533 81.4784 33.9467 81.4184 33.72C81.365 33.4867 81.2584 33.3133 81.0984 33.2C80.945 33.0867 80.7217 33.03 80.4284 33.03C80.2084 33.03 79.975 33.08 79.7284 33.18C79.4817 33.2733 79.2717 33.3867 79.0984 33.52C79.1584 33.78 79.1884 34.15 79.1884 34.63V37.42L79.8984 37.51V38H77.4784V37.51L78.1384 37.42V34.62C78.1384 34.22 78.1117 33.91 78.0584 33.69C78.0117 33.47 77.9184 33.3067 77.7784 33.2C77.6384 33.0867 77.425 33.03 77.1384 33.03C76.8984 33.03 76.6417 33.09 76.3684 33.21C76.1017 33.33 75.8684 33.47 75.6684 33.63V37.42L76.3384 37.51V38H74.0084V37.51ZM88.5195 38.09C88.3329 38.09 88.1929 38.0533 88.0995 37.98C88.0129 37.9067 87.9695 37.7867 87.9695 37.62V37.28C87.7495 37.5 87.4729 37.6933 87.1395 37.86C86.8129 38.0267 86.4829 38.11 86.1495 38.11C85.5295 38.11 85.0895 37.9433 84.8295 37.61C84.5695 37.2767 84.4395 36.7267 84.4395 35.96V33.06L83.8795 32.9V32.46L85.2795 32.33H85.2895L85.4795 32.45V35.88C85.4795 36.2667 85.5062 36.57 85.5595 36.79C85.6195 37.0033 85.7195 37.1633 85.8595 37.27C86.0062 37.37 86.2162 37.42 86.4895 37.42C86.7562 37.42 87.0062 37.3633 87.2395 37.25C87.4729 37.1367 87.6762 37.0033 87.8495 36.85V33.06L87.1295 32.9V32.46L88.6495 32.33H88.6595L88.8895 32.45V37.49H89.4895L89.4795 37.94C89.2929 37.9867 89.1295 38.0233 88.9895 38.05C88.8562 38.0767 88.6995 38.09 88.5195 38.09ZM90.8879 33.22L90.1679 33.04V32.5L91.5979 32.32H91.6279L91.8379 32.5V32.92L91.8279 33.16C92.0679 32.9467 92.3846 32.7533 92.7779 32.58C93.1712 32.4067 93.5479 32.32 93.9079 32.32C94.3279 32.32 94.6512 32.4 94.8779 32.56C95.1112 32.72 95.2746 32.9667 95.3679 33.3C95.4612 33.6267 95.5079 34.07 95.5079 34.63V37.43L96.2079 37.5V38H93.8379V37.51L94.4579 37.43V34.62C94.4579 34.2267 94.4312 33.92 94.3779 33.7C94.3246 33.4733 94.2246 33.3067 94.0779 33.2C93.9312 33.0867 93.7179 33.03 93.4379 33.03C93.1979 33.03 92.9412 33.09 92.6679 33.21C92.3946 33.33 92.1512 33.47 91.9379 33.63V37.42L92.6179 37.51V38H90.2579V37.51L90.8879 37.42V33.22ZM98.1085 31.45C97.8952 31.45 97.7352 31.39 97.6285 31.27C97.5218 31.15 97.4685 30.9967 97.4685 30.81C97.4685 30.5967 97.5318 30.42 97.6585 30.28C97.7918 30.14 97.9718 30.07 98.1985 30.07C98.4252 30.07 98.5918 30.13 98.6985 30.25C98.8052 30.37 98.8585 30.5233 98.8585 30.71C98.8585 30.9367 98.7918 31.1167 98.6585 31.25C98.5318 31.3833 98.3518 31.45 98.1185 31.45H98.1085ZM97.7085 33.22L96.9485 33.04V32.51L98.4985 32.32H98.5185L98.7485 32.5V37.43L99.5485 37.51V38H96.8985V37.51L97.7085 37.42V33.22ZM101.969 38.1C101.589 38.1 101.305 38.0133 101.119 37.84C100.932 37.6667 100.839 37.37 100.839 36.95V33.11H100.119V32.66C100.152 32.6533 100.245 32.63 100.399 32.59C100.552 32.55 100.655 32.5133 100.709 32.48C100.815 32.42 100.899 32.3 100.959 32.12C101.012 31.9933 101.075 31.79 101.149 31.51C101.222 31.23 101.265 31.0633 101.279 31.01H101.869L101.889 32.45H103.559V33.11H101.889V36.18C101.889 36.56 101.899 36.8267 101.919 36.98C101.945 37.1333 101.995 37.2333 102.069 37.28C102.149 37.3267 102.282 37.35 102.469 37.35C102.649 37.35 102.845 37.3267 103.059 37.28C103.279 37.2333 103.449 37.1833 103.569 37.13L103.719 37.58C103.559 37.7 103.299 37.8167 102.939 37.93C102.585 38.0433 102.262 38.1 101.969 38.1ZM105.141 40.49C105.028 40.49 104.914 40.4833 104.801 40.47C104.694 40.4567 104.618 40.4367 104.571 40.41V39.54C104.611 39.5667 104.688 39.5867 104.801 39.6C104.921 39.6133 105.034 39.62 105.141 39.62C105.461 39.62 105.741 39.5067 105.981 39.28C106.228 39.06 106.464 38.6333 106.691 38H106.211L104.311 33.05L103.851 32.92V32.45H106.261V32.92L105.491 33.04L106.471 35.99L106.931 37.45L107.361 35.98L108.251 33.04L107.581 32.92V32.45H109.591V32.92L109.091 33.04C108.111 36.04 107.534 37.7433 107.361 38.15C107.134 38.7233 106.928 39.17 106.741 39.49C106.554 39.8167 106.334 40.0633 106.081 40.23C105.828 40.4033 105.514 40.49 105.141 40.49Z" fill="white"/>
<path fill-rule="evenodd" clip-rule="evenodd" d="M20.5 41C31.8218 41 41 31.8218 41 20.5C41 9.17816 31.8218 0 20.5 0C9.17816 0 0 9.17816 0 20.5C0 31.8218 9.17816 41 20.5 41ZM23.6902 9.65297C23.8626 9.51415 24.0939 9.4364 24.3351 9.43619L24.3353 9.43564C24.5865 9.43525 24.8275 9.51889 25.0036 9.6676C25.1797 9.81623 25.2756 10.0172 25.2695 10.2246C25.2635 10.432 25.156 10.6282 24.9717 10.7685L22.7141 12.5375C22.3438 12.8277 21.9089 13.0579 21.4316 13.2129L17.2491 14.5823C16.5726 14.8038 16.0506 15.2447 15.7837 15.8531L14.7512 18.7579C14.7398 18.7899 14.7261 18.8213 14.7098 18.8519L13.4385 21.2264C13.3221 21.4982 13.4369 21.72 13.6735 21.8873C13.9112 22.0556 14.1784 22.1196 14.5106 21.9649C14.7732 21.8426 15.0471 21.6794 15.3273 21.4602C17.3542 19.8712 19.6914 17.6709 19.6914 17.6709C19.872 17.5005 20.1353 17.4053 20.4101 17.411C20.4101 17.411 25.2966 17.5128 26.5618 17.5544C27.9903 17.6013 29.1701 18.1768 29.5592 19.0951C29.874 19.8382 29.529 20.624 28.9056 21.3192C28.9591 21.4194 29.0004 21.5183 29.041 21.6171C29.5984 21.1831 30.2063 20.7093 30.6233 20.361C31.1532 19.9188 31.4249 19.5134 31.5051 18.7739L31.5051 18.7728C31.5476 18.3838 31.658 17.9101 31.8451 17.4338C32.0322 16.9575 32.2594 16.4815 32.7561 16.0921L33.1473 15.7855C33.3197 15.6466 33.551 15.5689 33.7922 15.5687C34.0431 15.5685 34.2837 15.6522 34.4594 15.8007C34.6352 15.9493 34.731 16.1498 34.7252 16.3569C34.7194 16.5641 34.6125 16.7602 34.4286 16.9005L34.0375 17.2071C33.9714 17.2589 33.7499 17.5613 33.6117 17.9126C33.4739 18.2636 33.3828 18.666 33.3553 18.9168L33.3553 18.9179C33.2408 19.97 32.7048 20.8095 31.9454 21.443C30.9034 22.3133 29.0762 23.6989 28.903 23.8302C28.8956 23.8411 28.8888 23.8525 28.882 23.8639C28.8725 23.8798 28.863 23.8956 28.8523 23.9099C28.7146 24.0939 28.5632 24.2112 28.4112 24.329C28.3772 24.3554 28.3432 24.3817 28.3093 24.4089C28.3275 24.4375 28.3459 24.4659 28.3643 24.4944C28.4776 24.6691 28.592 24.8455 28.6633 25.0876C28.8638 25.7682 28.6644 26.7079 27.812 27.4989C28.1876 28.35 28.044 29.2735 27.455 29.9667C26.7289 30.8211 25.4309 31.3605 23.922 31.3322C23.7394 31.3288 23.497 31.3245 23.2095 31.3194C21.5086 31.2892 18.2301 31.231 16.4426 31.1738C16.1733 31.1653 15.7864 31.1788 15.4624 31.2289C15.138 31.2791 14.892 31.3901 14.8792 31.4002L14.2888 31.8631C14.1117 32.0077 13.8713 32.0871 13.6217 32.0834C13.3722 32.0797 13.1344 31.9931 12.9622 31.8433C12.7901 31.6934 12.6978 31.4929 12.7063 31.2868C12.7148 31.0808 12.8233 30.8866 13.0074 30.748L13.5979 30.2851C14.0674 29.9171 14.606 29.7993 15.113 29.7209C15.6199 29.6426 16.1099 29.6279 16.5064 29.6405L16.5076 29.6406C18.2558 29.6965 21.5328 29.7549 23.2397 29.7853C23.5281 29.7905 23.7717 29.7948 23.9555 29.7982C24.9106 29.8161 25.5913 29.482 25.9322 29.0809C26.273 28.6798 26.335 28.2538 25.9391 27.7581C25.8091 27.5955 25.7585 27.3985 25.7975 27.2068C25.8365 27.0152 25.9623 26.8433 26.1492 26.7258C27.0305 26.1725 26.9698 25.8248 26.8577 25.4444C26.7456 25.0638 26.4384 24.759 26.4384 24.759C26.2481 24.5834 26.1654 24.3457 26.2141 24.1141C26.2628 23.8825 26.4376 23.6826 26.6882 23.5718C26.6882 23.5718 27.0444 23.4008 27.2704 23.0988C27.2712 23.0977 27.2717 23.0965 27.2723 23.0953C27.2729 23.0941 27.2734 23.0929 27.2742 23.0918L27.2756 23.0899C27.3016 23.0336 27.3356 22.9801 27.3769 22.9304C27.5321 22.663 27.5755 22.3282 27.0772 21.6664C26.9643 21.5165 26.917 21.3393 26.9434 21.1644C26.9699 20.9897 27.0684 20.8279 27.2224 20.7065C27.8441 20.2161 27.8979 19.8136 27.8062 19.597C27.7144 19.3803 27.4227 19.1183 26.4952 19.0878C25.4119 19.0522 21.5776 18.9714 20.8355 18.9557L20.7799 18.9546C20.771 18.963 20.7605 18.9729 20.7485 18.9841C20.3716 19.3387 18.5302 21.0708 16.6095 22.5765L16.6083 22.5765C16.2221 22.8787 15.8236 23.1188 15.4272 23.3033C14.4128 23.7757 13.2234 23.5857 12.4686 23.0515C11.7137 22.5174 11.3014 21.5892 11.6913 20.6962C11.6988 20.6795 11.7069 20.6631 11.7158 20.6469L11.8923 20.3162L6.80627 24.3036C6.62801 24.4434 6.38952 24.5188 6.14321 24.5131C5.89691 24.5075 5.663 24.4213 5.49291 24.2734C5.32281 24.1256 5.23051 23.9281 5.23631 23.7247C5.24213 23.5212 5.34545 23.3283 5.52378 23.1885L13.4045 17.0112C13.4177 17.0005 13.4313 16.9902 13.4453 16.9802L14.0157 15.3738C14.0212 15.3591 14.0273 15.3446 14.0339 15.3302C14.4719 14.3271 15.3892 13.5387 16.5585 13.1559L20.7435 11.7866L20.7459 11.7857C21.0001 11.703 21.2325 11.5798 21.4326 11.4229L23.6902 9.65297Z" fill="#D9D9D9"/>
</svg>
